<?xml version="1.0" encoding="UTF-8"?>
<svg width="30px" height="45px" viewBox="0 0 30 45" version="1.1" xmlns="http://www.w3.org/2000/svg" xmlns:xlink="http://www.w3.org/1999/xlink">
    <!-- Generator: Sketch 50.2 (55047) - http://www.bohemiancoding.com/sketch -->
    <title>archivo</title>
    <desc>Created with Sketch.</desc>
    <defs></defs>
    <g id="Page-1" stroke="none" stroke-width="1" fill="none" fill-rule="evenodd">
        <g id="Entidades-Programa-Detalle-Copy-5" transform="translate(-1149.000000, -200.000000)" fill="#FFFFFF" fill-rule="nonzero">
            <g id="Ficha" transform="translate(830.000000, 0.000000)">
                <g id="Boton-2" transform="translate(293.000000, 188.000000)">
                    <g id="archivo" transform="translate(26.000000, 12.000000)">
                        <path d="M29.9986092,8.80243857 C29.9982615,8.79282555 29.9979139,8.78321252 29.9972186,8.7735995 C29.9944371,8.73549071 29.9906126,8.69806861 29.9829636,8.66098981 C29.9829636,8.66098981 29.9829636,8.66098981 29.9829636,8.66064642 C29.9753146,8.62356771 29.9645365,8.58683221 29.9523676,8.5511267 C29.9492385,8.54220028 29.9461094,8.53327394 29.9426326,8.52434752 C29.9297684,8.4903586 29.9151658,8.45705637 29.8984771,8.42478412 C29.8974341,8.42306753 29.8967387,8.42135085 29.8956956,8.41963427 C29.8776163,8.38598864 29.8567554,8.3540597 29.8341561,8.32281735 C29.8285932,8.31492101 29.8226827,8.30736788 29.8167721,8.29947153 C29.7927821,8.26857249 29.767749,8.23870343 29.7395869,8.21089435 L21.6852096,0.257491713 C21.6570474,0.229682547 21.6267992,0.204963347 21.5955079,0.181274135 C21.5875112,0.175437679 21.5795146,0.169257835 21.5715179,0.16376468 C21.539879,0.141448757 21.5078923,0.120849423 21.4741673,0.103339968 C21.4717335,0.101966679 21.4692998,0.101280079 21.4672137,0.0999067897 C21.435227,0.0834273228 21.4018496,0.0693510457 21.3681246,0.0566481453 C21.3587372,0.053214967 21.3496975,0.050125001 21.3399624,0.047035123 C21.3038036,0.035018911 21.2672971,0.0243759 21.2293999,0.0168227671 C21.2290522,0.0168227671 21.2287045,0.0168227671 21.2287045,0.0168227671 C21.1915027,0.00961302232 21.1536054,0.00549315561 21.1153605,0.00274657781 C21.1056254,0.00240325998 21.0958904,0.00171660673 21.0861553,0.0013732889 C21.0760726,0.00102997107 21.0659899,0 21.055907,0 L0.890063277,0 C0.398442344,0 0,0.393447227 0,0.878904898 L0,38.4980945 C0,38.9835521 0.398442344,39.3769994 0.890063277,39.3769994 L14.2903832,39.3769994 L14.2903832,44.1210259 C14.2903832,44.4406589 14.4663097,44.7352293 14.7496697,44.8900677 C15.0333774,45.044906 15.3793199,45.0356363 15.6536402,44.8656918 L19.0435296,42.7655897 L22.4334191,44.8656918 C22.5777066,44.9549555 22.7421598,44.9999308 22.9066129,44.9999308 C23.054725,44.9999308 23.2031847,44.9635387 23.3373896,44.890411 C23.6207495,44.7355727 23.7966761,44.4410022 23.7966761,44.1210259 L23.7966761,39.3769994 L29.1099367,39.3769994 C29.6015576,39.3769994 30,38.9835521 30,38.4980945 L30,8.83230763 C30,8.82235121 29.9989569,8.81239489 29.9986092,8.80243857 Z M21.9459703,3.00097955 L26.9612683,7.95340273 L21.9459703,7.95340273 L21.9459703,3.00097955 Z M13.8512621,27.1468317 C13.7886795,26.9789472 13.686809,26.7046327 13.6843752,26.5923663 C13.7539114,26.5072224 13.995202,26.3565039 14.1429664,26.2644936 C14.4600515,26.06674 14.8195536,25.8422073 15.0803143,25.4913319 C15.3435088,25.1366801 15.4505945,24.7270967 15.5451638,24.3659217 C15.5865378,24.2079935 15.6532926,23.9529051 15.7103121,23.8564315 C15.7416035,23.8499084 15.8073152,23.8406387 15.9307419,23.8406387 C16.029831,23.8406387 16.1407412,23.8461318 16.2582574,23.8519683 C16.3931577,23.8584914 16.53223,23.8653579 16.6775606,23.8653579 C16.9981225,23.8653579 17.2567971,23.8296523 17.4914818,23.7524049 C17.9013977,23.6178226 18.2292608,23.357241 18.5185314,23.1272151 C18.6784646,23.0001859 18.9461789,22.7873261 19.0393574,22.7742799 C19.141228,22.7873261 19.4085947,23.0001859 19.5685279,23.1272151 C19.8577985,23.357241 20.1860093,23.6178226 20.5959252,23.7524049 C20.8306098,23.8296523 21.0889368,23.8653579 21.4098463,23.8653579 C21.5548293,23.8653579 21.6942493,23.8584914 21.8288019,23.8519683 C21.946318,23.8461318 22.0572282,23.8406387 22.156665,23.8406387 C22.2800917,23.8406387 22.3454558,23.8495651 22.3770947,23.8564315 C22.4341144,23.9529051 22.5008691,24.2079935 22.5418955,24.3659217 C22.6364648,24.7270967 22.7438982,25.1366801 23.0070926,25.4913319 C23.2675057,25.8422073 23.6270078,26.0663967 23.9444405,26.2644936 C24.0918573,26.3568472 24.3331479,26.5072224 24.4026841,26.5923663 C24.4002503,26.7046327 24.2983798,26.9789472 24.2361449,27.1468317 C24.1036785,27.5028569 23.9538279,27.9066038 23.9538279,28.3539527 C23.9538279,28.8013015 24.1036785,29.2050484 24.2357972,29.5614169 C24.2983798,29.7293015 24.4002503,30.003616 24.4026841,30.1158823 C24.3331479,30.2010263 24.0918573,30.3514014 23.9444405,30.443755 C23.6270078,30.6415086 23.2675057,30.8660414 23.0070926,31.2169167 C22.7438982,31.5715686 22.6364648,31.981152 22.5418955,32.342327 C22.5008691,32.4999119 22.4337667,32.7553436 22.3770947,32.8518171 C22.3454558,32.8583403 22.2800917,32.86761 22.156665,32.86761 C22.0572282,32.86761 21.946318,32.8621169 21.8288019,32.8562803 C21.6942493,32.8497572 21.5548293,32.8428908 21.4098463,32.8428908 C21.0889368,32.8428908 20.8306098,32.8785963 20.5959252,32.9558438 C20.1860093,33.0904261 19.8577985,33.351351 19.5685279,33.5810336 C19.4110285,33.7066894 19.1481816,33.9150861 19.0435296,33.9336255 C18.9388777,33.9150861 18.6763785,33.7066894 18.518879,33.5810336 C18.2292608,33.351351 17.9013977,33.0904261 17.4914818,32.9558438 C17.2567971,32.8785963 16.9981225,32.8428908 16.6775606,32.8428908 C16.5325777,32.8428908 16.3931577,32.8497572 16.2582574,32.8562803 C16.1410889,32.8621169 16.0301786,32.86761 15.9307419,32.86761 C15.8073152,32.86761 15.7419511,32.8583403 15.7103121,32.8518171 C15.6532926,32.7553436 15.5865378,32.5002552 15.5451638,32.342327 C15.4509422,31.981152 15.3435088,31.5715686 15.0803143,31.2169167 C14.8199012,30.8660414 14.4603991,30.6415086 14.1429664,30.443755 C13.9955497,30.3517447 13.7542591,30.2010263 13.6847229,30.1158823 C13.6871567,30.0039593 13.7890272,29.7293015 13.8512621,29.5614169 C13.9837285,29.2053918 14.133579,28.8016449 14.133579,28.354296 C14.133579,27.9066038 13.9833809,27.5028569 13.8512621,27.1468317 Z M22.0165496,42.5321306 L19.5167235,40.983404 C19.2274529,40.8045332 18.8596064,40.8045332 18.5703358,40.983404 L16.0705097,42.5321306 L16.0705097,34.6226732 C16.1650789,34.6199266 16.2579097,34.6164934 16.3479591,34.6120302 C16.465823,34.6058504 16.5770809,34.6003572 16.6775606,34.6003572 C16.8354078,34.6003572 16.9028579,34.6147768 16.928934,34.6233598 C17.0349767,34.6583787 17.2387178,34.8204268 17.4024754,34.9505459 C17.8179542,35.2808219 18.3349558,35.6917786 19.0435296,35.6917786 C19.7521035,35.6917786 20.269105,35.2808219 20.6845838,34.9505459 C20.8483415,34.8204268 21.0520826,34.6583787 21.1577776,34.6237031 C21.1842013,34.6151201 21.2516515,34.6007006 21.4094986,34.6007006 C21.5099784,34.6007006 21.6212363,34.6061938 21.7391002,34.6120302 C21.8291495,34.6164934 21.9219804,34.62027 22.0162019,34.6226732 L22.0162019,42.5321306 L22.0165496,42.5321306 Z M23.7966761,37.6191896 L23.7966761,33.9143995 C24.0612613,33.5594042 24.1718239,33.1391778 24.2653501,32.7821227 C24.3143731,32.5946688 24.3814756,32.3382071 24.4426674,32.2561531 C24.5035115,32.1737557 24.7298519,32.0326504 24.8950003,31.9296536 C25.3330784,31.6563692 25.8782421,31.3161368 26.0948474,30.672751 C26.3090188,30.0379482 26.0861553,29.4381642 25.9070996,28.9561398 C25.8257423,28.7374436 25.7336068,28.4892216 25.7336068,28.3539527 C25.7336068,28.2186837 25.8257423,27.9708051 25.9070996,27.7521088 C26.0861553,27.2700844 26.3090188,26.6699571 26.0948474,26.0351543 C25.8782421,25.3921118 25.3330784,25.0518795 24.8950003,24.778595 C24.7298519,24.6755983 24.5035115,24.5341496 24.4426674,24.4524389 C24.3814756,24.3700416 24.3143731,24.1135799 24.2653501,23.9261259 C24.1374035,23.4368917 23.9781656,22.8278381 23.4330019,22.4330175 C22.999096,22.1192211 22.496697,22.0828289 22.1563174,22.0828289 C22.0123774,22.0828289 21.873305,22.0896953 21.7391002,22.0965618 C21.6212363,22.1023982 21.5099784,22.1078914 21.4098463,22.1078914 C21.2516515,22.1078914 21.1842013,22.0934719 21.1581253,22.0848888 C21.0524303,22.0502132 20.8486892,21.8881651 20.6849315,21.7577028 C20.269105,21.4277701 19.7521035,21.0168134 19.0435296,21.0168134 C18.3353035,21.0168134 17.8179542,21.4277701 17.4024754,21.7577028 C17.2387178,21.8878218 17.0349767,22.0502132 16.9292817,22.0848888 C16.9032056,22.0934719 16.8354078,22.1078914 16.6775606,22.1078914 C16.5774285,22.1078914 16.465823,22.1023982 16.3479591,22.0962185 C16.2137542,22.0896953 16.0750296,22.0828289 15.9307419,22.0828289 C15.5907099,22.0828289 15.0883109,22.1192211 14.6547528,22.4330175 C14.1092413,22.8278381 13.9496557,23.4368917 13.8217091,23.9261259 C13.7726861,24.1135799 13.7055837,24.3700416 13.6447395,24.4520956 C13.5835477,24.5341496 13.3572074,24.6755983 13.192059,24.778595 C12.753981,25.0518795 12.2091649,25.3921118 11.9922119,26.0351543 C11.7780405,26.6703005 12.0009039,27.2700844 12.1799597,27.7521088 C12.261317,27.9708051 12.3534525,28.2186837 12.3534525,28.3539527 C12.3534525,28.4892216 12.261317,28.7374436 12.1799597,28.9561398 C12.0009039,29.4381642 11.7780405,30.0379482 11.9922119,30.6730943 C12.2091649,31.3161368 12.7543286,31.6563692 13.192059,31.9296536 C13.3575551,32.0326504 13.5835477,32.174099 13.6447395,32.2561531 C13.7055837,32.3382071 13.7726861,32.5946688 13.8217091,32.7821227 C13.9152354,33.1391778 14.0261456,33.5597476 14.2907308,33.9143995 L14.2907308,37.6191896 L1.78012655,37.6191896 L1.78012655,1.7578098 L20.1658438,1.7578098 L20.1658438,8.83230763 C20.1658438,9.31776521 20.5642862,9.71121252 21.055907,9.71121252 L28.2198734,9.71121252 L28.2198734,37.6191896 L23.7966761,37.6191896 Z" id="Shape"></path>
                        <path d="M4.87344496,10 L16.126555,10 C16.6086557,10 17,9.5523437 17,9 C17,8.4476562 16.6086557,8 16.126555,8 L4.87344496,8 C4.39100314,8 4,8.4476562 4,9 C4,9.5523437 4.39134431,10 4.87344496,10 Z" id="Shape"></path>
                        <path d="M24.1266205,12 L4.87337947,12 C4.39097382,12 4,12.4476562 4,13 C4,13.5523438 4.39097382,14 4.87337947,14 L24.1266205,14 C24.6090262,14 25,13.5523438 25,13 C25,12.4476562 24.6090262,12 24.1266205,12 Z" id="Shape"></path>
                        <path d="M21.1019995,17 L4.89800054,17 C4.4019956,17 4,17.4480469 4,18 C4,18.5523438 4.4019956,19 4.89800054,19 L21.1019995,19 C21.5980044,19 22,18.5523438 22,18 C22,17.4480469 21.5980044,17 21.1019995,17 Z" id="Shape"></path>
                        <path d="M25,17 C24.4492187,17 24,17.4492188 24,18 C24,18.5507813 24.4492187,19 25,19 C25.5511718,19 26,18.5507813 26,18 C26,17.4492188 25.5511718,17 25,17 Z" id="Shape"></path>
                    </g>
                </g>
            </g>
        </g>
    </g>
</svg>