<?xml version="1.0" encoding="UTF-8"?>
<svg width="38px" height="38px" viewBox="0 0 38 38" version="1.1" xmlns="http://www.w3.org/2000/svg" xmlns:xlink="http://www.w3.org/1999/xlink">
    <!-- Generator: Sketch 50.2 (55047) - http://www.bohemiancoding.com/sketch -->
    <title>connection</title>
    <desc>Created with Sketch.</desc>
    <defs></defs>
    <g id="Page-1" stroke="none" stroke-width="1" fill="none" fill-rule="evenodd">
        <g id="Entidades-Programa-Copy" transform="translate(-30.000000, -169.000000)" fill="#FFFFFF" fill-rule="nonzero">
            <g id="Menu-izquierdo">
                <g id="Group-5" transform="translate(30.000000, 169.000000)">
                    <g id="connection">
                        <path d="M30.7448804,7.25414062 C28.3607468,4.87001172 25.3834558,3.29687109 22.1020158,2.67966797 C21.8801013,1.16597656 20.5733292,0 18.9989238,0 C17.4245926,0 16.117969,1.16597656 15.8958318,2.67974219 C12.6153567,3.29687109 9.63858523,4.87016016 7.25489698,7.25414062 C4.87150561,9.63782422 3.29806504,12.6148125 2.67997008,15.895875 C1.16612728,16.1177148 0,17.4245586 0,18.9989609 C0,20.5738828 1.16694369,21.8810977 2.68160289,22.1022695 C3.13077565,24.4681406 4.10215254,26.7364141 5.51245999,28.6958633 C5.75359717,29.0310352 6.22080512,29.1070352 6.55582921,28.8659727 C6.8908533,28.6247617 6.96700189,28.1576289 6.7258647,27.8226055 C5.46941303,26.0769062 4.59481757,24.0625352 4.17518394,21.9590273 C4.26535989,21.9271133 4.35419991,21.8905977 4.44103602,21.8505195 C5.37411597,21.4219805 6.06212512,20.5493164 6.23223483,19.5044648 C6.28196149,19.1999453 6.28641462,18.8884492 6.2450747,18.582668 C6.08750798,17.4005117 5.26954154,16.4246836 4.1750355,16.0395625 C5.3593464,10.1026563 10.1048283,5.35718359 16.0395938,4.17473047 C16.4246415,5.26938281 17.4003973,6.08742188 18.58263,6.24498828 C18.8872244,6.28566016 19.2028031,6.28580859 19.5059873,6.23185156 C20.4010672,6.08571484 21.1694554,5.55942969 21.6407454,4.82473828 C21.7619448,4.61269531 21.8769099,4.40614453 21.9592187,4.17487891 C27.8947264,5.35755469 32.640802,10.1029531 33.8251129,16.0395625 C33.824445,16.0397852 33.8238512,16.040082 33.8232575,16.0403047 C33.7863707,16.053293 33.7499292,16.0671719 33.7136362,16.0814961 C33.7123002,16.0820156 33.7109643,16.0826094 33.7096283,16.0830547 C32.6735326,16.4944492 31.9072967,17.4421484 31.755148,18.5820742 C31.713808,18.8867422 31.713808,19.2039531 31.7684331,19.5072109 C31.9147186,20.4013242 32.4403368,21.1689687 33.174139,21.6398867 C33.3802449,21.7686562 33.5957023,21.8775352 33.8249645,21.9591758 C32.6406536,27.8946719 27.8948748,32.6404414 21.9592187,33.8248984 C21.8780232,33.5939297 21.7667691,33.3771367 21.6372571,33.169918 C21.1664867,32.4391602 20.4012898,31.9156953 19.510292,31.7688906 C19.2018383,31.7221328 18.8922713,31.7136719 18.5825558,31.7550117 C17.4004715,31.9125781 16.4248641,32.7304688 16.0397423,33.8248984 C16.039668,33.8250469 16.0395938,33.8252695 16.0395196,33.825418 C14.207352,33.4621914 12.478497,32.7680977 10.8908806,31.7573125 C10.5427198,31.5356953 10.0807814,31.6381914 9.85901535,31.9864258 C9.63732351,32.3345859 9.73989402,32.7966719 10.0881291,33.0183633 C11.8756169,34.1564336 13.8269801,34.9280117 15.8957576,35.3188477 C16.1170784,36.833207 17.4241473,38 18.9989238,38 C20.5733292,38 21.8800271,36.8339492 22.1020158,35.3201836 C25.3837527,34.7020898 28.3611921,33.1285781 30.7448804,30.7448945 C33.1285686,28.3612109 34.7020092,25.3839258 35.3201784,22.1021953 C36.8339469,21.8802812 38,20.5734375 38,18.9990352 C38,17.4246328 36.8338727,16.1178633 35.3201041,15.895875 C34.7020092,12.6147383 33.1285686,9.63767578 30.7448804,7.25414062 C28.3607468,4.87001172 33.1285686,9.63767578 30.7448804,7.25414062 C28.3607468,4.87001172 33.1285686,9.63767578 30.7448804,7.25414062 C28.3607468,4.87001172 33.1285686,9.63767578 30.7448804,7.25414062 C28.3607468,4.87001172 33.1285686,9.63767578 30.7448804,7.25414062 C28.3607468,4.87001172 33.1285686,9.63767578 30.7448804,7.25414062 Z M1.4949912,18.9989609 C1.4949912,18.0937148 2.2314653,17.357168 3.13678738,17.357168 C3.33472917,17.357168 3.53192877,17.3939805 3.71717914,17.4634492 C4.29037166,17.6820234 4.70904045,18.2134297 4.77064213,18.8390937 C4.78578278,18.996957 4.77932574,19.1580117 4.74793115,19.3136484 C4.66822006,19.7196992 4.43747351,20.0754297 4.11558616,20.3161953 C3.83177311,20.524082 3.48947557,20.6407539 3.13678738,20.6407539 C2.23139108,20.6406797 1.4949912,19.9042812 1.4949912,18.9989609 Z M20.6340403,3.28046875 C20.6085832,3.58454297 20.4937666,3.86969141 20.3159381,4.11594922 C20.0752462,4.43761328 19.7196635,4.66813672 19.3137604,4.74792187 C19.155971,4.77575391 18.9990723,4.78517969 18.8391305,4.77063281 C18.213391,4.70903125 17.6819838,4.29014062 17.4634091,3.716875 C17.4001004,3.52702344 17.3572761,3.33821094 17.3572761,3.13685547 C17.3572761,2.23153516 18.0937502,1.4950625 18.9989238,1.4950625 C19.9041717,1.4950625 20.6406458,2.23153516 20.6406458,3.13685547 C20.6406458,3.18821484 20.638345,3.24001953 20.6331497,3.29123047 C20.6339661,3.28306641 20.633595,3.27416016 20.635302,3.26607031 C20.6348567,3.27082031 20.6344114,3.27564453 20.6340403,3.28046875 C20.6307005,3.32032422 20.6381966,3.23311719 20.6340403,3.28046875 C20.6085832,3.58454297 20.6381966,3.23311719 20.6340403,3.28046875 Z M18.9989238,36.5050117 C18.0937502,36.5050117 17.3572761,35.7685391 17.3572761,34.8632187 C17.3572761,34.6621602 17.3980223,34.470082 17.4641513,34.2811211 C17.6831713,33.7088203 18.214059,33.2908945 18.8389821,33.2293672 C18.9960293,33.2157109 19.1591624,33.2177891 19.3137604,33.2521523 C19.668972,33.321918 19.9857383,33.5072422 20.2205668,33.7679727 C20.4843408,34.0757578 20.6405716,34.4545703 20.6405716,34.8632187 C20.6406458,35.7686133 19.9042459,36.5050117 18.9989238,36.5050117 Z M34.8632868,20.6406797 C34.5093369,20.6406797 34.1690433,20.5231172 33.8838201,20.3156758 C33.5624523,20.0750586 33.3318542,19.7195508 33.2521431,19.3137969 C33.2257211,19.1551172 33.2154789,18.9997773 33.2294321,18.8390938 C33.2909596,18.2142461 33.7085151,17.6836563 34.2802974,17.4644883 C34.4671064,17.3953164 34.6637122,17.357168 34.8632126,17.357168 C35.7685347,17.357168 36.5050088,18.0937148 36.5050088,18.9989609 C36.5050088,19.904207 35.7686831,20.6406797 34.8632868,20.6406797 Z" id="Shape"></path>
                        <path d="M17.8220206,29.9865977 C18.149822,29.9954832 18.4823019,30 18.8131216,30 C18.8754522,30 18.9377827,29.9998519 18.9999624,29.9995557 C19.3909998,30.0012588 19.7864139,29.9971863 20.1756402,29.9865977 C20.2234823,29.9852649 20.2700416,29.9780824 20.3157708,29.9683084 C23.2142167,29.8633853 26.037202,29.370906 28.4881659,28.540111 C28.8041199,28.4331147 29.0117123,28.1358944 28.9994877,27.8079451 C28.9160281,25.5724253 27.9878614,23.631386 26.3155011,22.1947475 C25.3328517,21.3506242 24.0927304,20.6936889 22.7112711,20.2703685 C24.0511515,19.2432038 24.8386595,17.7792422 24.8386595,16.2757402 L24.8386595,14.3830529 C24.8386595,14.381572 24.8384331,14.3802392 24.8384331,14.3788323 C24.8652971,12.4418656 24.2716477,10.8121153 23.1208718,9.66544042 C22.042991,8.59140462 20.5440394,8 18.9000524,8 C16.0972906,8 13.1185545,9.83626432 13.1185545,13.239488 L13.1185545,14.3830529 L13.1185545,16.2757402 C13.1185545,17.67232 13.7745344,19.006479 14.9657572,20.0325331 C15.0655163,20.1185004 15.1688975,20.2000249 15.2738633,20.2793281 C13.8997237,20.7039813 12.6654883,21.3603982 11.6859328,22.2028925 C10.0125161,23.6420486 9.08397203,25.5838284 9.00051248,27.8183116 C8.98828784,28.1462609 9.1958048,28.443333 9.51183426,28.5504774 C11.9917751,29.3911946 14.8522643,29.8861174 17.7861013,29.9829694 C17.7980996,29.983932 17.809796,29.9862275 17.8220206,29.9865977 Z M19.0008679,28.5080491 C19.000717,28.5080491 19.0003397,28.5080491 18.9999624,28.5080491 L18.9998869,28.5080491 C18.9998114,28.5080491 18.9998114,28.5080491 18.9998114,28.5080491 C18.999736,28.5080491 18.999736,28.5080491 18.9996605,28.5080491 C18.9980758,28.5081232 18.9962648,28.5080491 18.9946801,28.5081232 C18.7812772,28.5093079 18.5660633,28.5084194 18.3516794,28.5055316 L18.0379892,27.7758832 L18.5561024,24.3551847 L19.4436713,24.3551847 L19.9617846,27.7753649 L19.6466607,28.5055316 C19.4326541,28.5083453 19.2182702,28.5091598 19.0051691,28.5081232 C19.0037354,28.5080491 19.0023016,28.5080491 19.0008679,28.5080491 Z M18.3574899,21.5234473 C18.5628185,21.5469199 18.7685244,21.5609145 18.973702,21.5621733 C18.9846438,21.5622474 18.9954347,21.5623214 19.0063765,21.5623214 C19.217591,21.5623214 19.4302393,21.5497336 19.6430385,21.5251504 L19.4426149,22.8636041 L18.5575362,22.8636041 L18.3574899,21.5234473 Z M27.4388847,27.3097643 C26.9961567,27.4468973 26.5411286,27.572257 26.0765925,27.6865839 L26.0765925,26.383376 C26.0765925,25.9715327 25.7362647,25.6376597 25.3166276,25.6376597 C24.8969906,25.6376597 24.5566628,25.9716068 24.5566628,26.383376 L24.5566628,28.0124599 C23.5135694,28.2049052 22.4334248,28.3418161 21.3340376,28.4202307 L21.444663,28.1639578 C21.4992211,28.0377096 21.5171053,27.8991697 21.49658,27.7635176 L20.8671622,23.608802 L21.1939826,21.4271136 C24.1127274,21.997193 27.0366791,23.7913252 27.4388847,27.3097643 Z M14.6384087,13.2396361 C14.6384087,10.7790167 16.7822475,9.49165469 18.8999769,9.49165469 C20.1335332,9.49165469 21.2478615,9.9251194 22.0377842,10.7121533 C22.7580567,11.4297321 23.1856926,12.4315732 23.2928468,13.6374847 L20.0327177,13.6374847 C18.4356672,13.6374847 17.2424069,13.1946162 16.2774153,12.2434966 C16.1318516,12.1000697 15.9369366,12.0238764 15.7387013,12.0238764 C15.6397723,12.0238764 15.5400887,12.0428322 15.4451591,12.0818544 C15.1600686,12.199069 14.975718,12.4740015 14.9788874,12.7772194 C14.9820567,13.0793267 14.9173115,13.2982064 14.7864626,13.4278608 C14.74345,13.4705853 14.6927404,13.5050166 14.6383332,13.5328579 L14.6383332,13.2396361 L14.6384087,13.2396361 Z M16.5547334,28.1629952 L16.6698865,28.4310414 C15.5150358,28.3487764 14.3810876,28.2020915 13.2890957,27.9942446 L13.2890957,26.3791554 C13.2890957,25.9672381 12.9488433,25.6334391 12.5291308,25.6334391 C12.1094184,25.6334391 11.769166,25.9673121 11.769166,26.3791554 L11.769166,27.6586686 C11.3581315,27.5547081 10.9546431,27.4420843 10.5608891,27.3201307 C10.9632456,23.7992481 13.887801,22.002006 16.8073759,21.4296312 L17.1323852,23.6084318 L16.5031183,27.7634435 C16.4826685,27.8987994 16.5004772,28.0369691 16.5547334,28.1629952 Z M17.7351654,19.8817016 C17.7291285,19.8792581 17.723318,19.8765184 17.7172057,19.8741489 C17.7006798,19.8680031 17.6837766,19.8628199 17.6667225,19.8577107 C17.660082,19.8557855 17.6536678,19.853416 17.6469518,19.8516389 C17.6352554,19.848529 17.623408,19.8461595 17.6115607,19.8435679 C15.9397286,19.2974794 14.6384087,17.8381828 14.6384087,16.2758143 L14.6384087,15.0874516 C15.0311062,15.0152568 15.4920957,14.8483574 15.8667581,14.4769431 C15.9864388,14.3583216 16.0892918,14.2276306 16.1751661,14.0850182 C17.2471609,14.7859367 18.5198813,15.1289173 20.0326422,15.1289173 L23.3185034,15.1289173 L23.3185034,16.2758143 C23.3185034,17.4182685 22.632641,18.5496158 21.4846572,19.3019222 C20.7250697,19.7981778 19.8460279,20.0708889 19.0070557,20.0708889 C18.9992077,20.0708889 18.9912844,20.0708148 18.9834365,20.0708148 C18.5599509,20.0680751 18.1434833,20.0028407 17.7461826,19.8862184 C17.742636,19.8847375 17.7389384,19.8831825 17.7351654,19.8817016 Z" id="Shape"></path>
                        <path d="M8.84753993,29.1454875 C8.65364327,28.9515042 8.33925754,28.9515042 8.14545948,29.1454875 C7.95151351,29.3393722 7.95151351,29.6537386 8.14545948,29.847574 L8.15241077,29.8545741 C8.24938375,29.9515411 8.3764297,30 8.50347565,30 C8.63057089,30 8.75761684,29.9515411 8.85454052,29.8545741 C9.04848649,29.6606894 9.04848649,29.3463231 8.85454052,29.1524876 L8.84753993,29.1454875 Z" id="Shape"></path>
                    </g>
                </g>
            </g>
        </g>
    </g>
</svg>