<?xml version="1.0" encoding="UTF-8"?>
<svg width="15px" height="27px" viewBox="0 0 15 27" version="1.1" xmlns="http://www.w3.org/2000/svg" xmlns:xlink="http://www.w3.org/1999/xlink">
    <!-- Generator: Sketch 50.2 (55047) - http://www.bohemiancoding.com/sketch -->
    <title>facebook-logo (1)</title>
    <desc>Created with Sketch.</desc>
    <defs></defs>
    <g id="Page-1" stroke="none" stroke-width="1" fill="none" fill-rule="evenodd">
        <g id="Entidades-Programa-Detalle-Copy-5" transform="translate(-1340.000000, -698.000000)" fill="#81D7EA" fill-rule="nonzero">
            <g id="Ficha" transform="translate(830.000000, 0.000000)">
                <g id="Group-3" transform="translate(33.000000, 489.000000)">
                    <g id="Group-Copy-4" transform="translate(0.000000, 195.000000)">
                        <g id="facebook-logo-(1)" transform="translate(477.000000, 14.000000)">
                            <path d="M14.435144,0.00561780219 L10.8373261,0 C6.79530104,0 4.18316689,2.60806467 4.18316689,6.64473643 L4.18316689,9.70840486 L0.565721873,9.70840486 C0.253131675,9.70840486 0,9.95502637 0,10.2592304 L0,14.6981368 C0,15.0023408 0.253420308,15.2486814 0.565721873,15.2486814 L4.18316689,15.2486814 L4.18316689,26.4494554 C4.18316689,26.7536594 4.43629856,27 4.74888876,27 L9.46862553,27 C9.78121572,27 10.0343474,26.7533785 10.0343474,26.4494554 L10.0343474,15.2486814 L14.2639843,15.2486814 C14.5765745,15.2486814 14.8297062,15.0023408 14.8297062,14.6981368 L14.831438,10.2592304 C14.831438,10.1131675 14.7716908,9.97328423 14.6657623,9.86991667 C14.5598337,9.76654911 14.4155169,9.70840486 14.2654275,9.70840486 L10.0343474,9.70840486 L10.0343474,7.1112949 C10.0343474,5.86301926 10.3400104,5.22933117 12.0109104,5.22933117 L14.4345668,5.2284885 C14.7468683,5.2284885 15,4.98186698 15,4.67794388 L15,0.556162417 C15,0.252520208 14.747157,0.00617958241 14.435144,0.00561780219 Z" id="Shape"></path>
                        </g>
                    </g>
                </g>
            </g>
        </g>
    </g>
</svg>