<?xml version="1.0" encoding="UTF-8"?>
<svg width="25px" height="25px" viewBox="0 0 25 25" version="1.1" xmlns="http://www.w3.org/2000/svg" xmlns:xlink="http://www.w3.org/1999/xlink">
    <!-- Generator: Sketch 50.2 (55047) - http://www.bohemiancoding.com/sketch -->
    <title>casa-sin-puerta-en-silueta-negra</title>
    <desc>Created with Sketch.</desc>
    <defs></defs>
    <g id="Page-1" stroke="none" stroke-width="1" fill="none" fill-rule="evenodd">
        <g id="Entidades-Programa-Detalle-Copy-5" transform="translate(-1335.000000, -506.000000)" fill="#81D7EA" fill-rule="nonzero">
            <g id="Ficha" transform="translate(830.000000, 0.000000)">
                <g id="Group-3" transform="translate(33.000000, 489.000000)">
                    <g id="Group">
                        <g id="casa-sin-puerta-en-silueta-negra" transform="translate(472.000000, 17.000000)">
                            <path d="M24.6867841,11.7458226 C25.1399684,11.250063 25.0962065,10.4902117 24.5890736,10.0490861 L13.4162595,0.32486969 C12.9091266,-0.116255863 12.0960679,-0.107015085 11.5996107,0.34570197 L0.388820654,10.5675424 C-0.107636583,11.0202595 -0.132003082,11.7791381 0.334872083,12.2618471 L0.615942505,12.5530127 C1.08224722,13.0357217 1.83597883,13.093274 2.29837186,12.6811677 L3.13620457,11.9348533 L3.13620457,22.8610193 C3.13620457,23.531381 3.68229123,24.0740741 4.35575194,24.0740741 L8.72574912,24.0740741 C9.39920983,24.0740741 9.94529649,23.531381 9.94529649,22.8610193 L9.94529649,15.2171127 L15.5192758,15.2171127 L15.5192758,22.8610193 C15.5095781,23.5308947 15.9914481,24.0735877 16.6649088,24.0735877 L21.2960105,24.0735877 C21.9694712,24.0735877 22.5155579,23.5308947 22.5155579,22.860533 L22.5155579,12.0887041 C22.5155579,12.0887041 22.7469989,12.2903801 23.0324699,12.5399621 C23.317452,12.7890578 23.9160204,12.5893273 24.3692047,12.0930813 L24.6867841,11.7458226 Z" id="Shape"></path>
                        </g>
                    </g>
                </g>
            </g>
        </g>
    </g>
</svg>