<?xml version="1.0" encoding="UTF-8"?>
<svg width="33px" height="33px" viewBox="0 0 33 33" version="1.1" xmlns="http://www.w3.org/2000/svg" xmlns:xlink="http://www.w3.org/1999/xlink">
    <!-- Generator: Sketch 50.2 (55047) - http://www.bohemiancoding.com/sketch -->
    <title>gauge</title>
    <desc>Created with Sketch.</desc>
    <defs></defs>
    <g id="Page-1" stroke="none" stroke-width="1" fill="none" fill-rule="evenodd">
        <g id="Entidades-Programa-Copy" transform="translate(-32.000000, -349.000000)" fill="#FFFFFF" fill-rule="nonzero">
            <g id="Menu-izquierdo">
                <g id="Group-5-Copy" transform="translate(32.000000, 349.000000)">
                    <g id="gauge">
                        <path d="M28.1672745,4.83272554 C25.0508652,1.71631621 20.9072342,0 16.5,0 C12.0927658,0 7.94913481,1.71631621 4.83272554,4.83272554 C1.71631621,7.94913481 0,12.0927658 0,16.5 C0,20.9072342 1.71631621,25.0508652 4.83272554,28.1672745 C7.94913481,31.2836838 12.0927658,33 16.5,33 C20.9072342,33 25.0508652,31.2836838 28.1672745,28.1672745 C31.2836838,25.0508652 33,20.9072342 33,16.5 C33,12.0927658 31.2836838,7.94913481 28.1672745,4.83272554 Z M6.20008847,6.20008847 C8.95117949,3.4487457 12.6091461,1.93359375 16.5,1.93359375 C20.3908539,1.93359375 24.0488205,3.4487457 26.7999115,6.20008847 C29.5512543,8.95117949 31.0664063,12.6091461 31.0664063,16.5 C31.0664063,17.7548218 30.9087983,18.9854736 30.6028977,20.1692963 L21.7725678,20.1692963 C21.4704438,20.1692963 21.1814117,20.2984543 20.9799957,20.5227813 C19.8387222,21.7927094 18.2059937,22.5208282 16.5,22.5208282 C14.7940063,22.5208282 13.161026,21.7927094 12.019249,20.5217743 C11.8173294,20.297699 11.528801,20.1690445 11.2271805,20.1690445 L2.39710234,20.1690445 C2.09120175,18.9854736 1.93359375,17.7548218 1.93359375,16.5 C1.93359375,12.6091461 3.4487457,8.95117949 6.20008847,6.20008847 Z M26.7999115,26.7999115 C24.0488205,29.5512543 20.3908539,31.0664063 16.5,31.0664063 C12.6091461,31.0664063 8.95117949,29.5512543 6.20008847,26.7999115 C4.83096313,25.4310379 3.7682419,23.8375854 3.04566191,22.10289 L10.8535538,22.10289 C12.3425217,23.6019287 14.378334,24.454422 16.5,24.454422 C18.6214142,24.454422 20.6569748,23.6021805 22.1461944,22.10289 L29.9543381,22.10289 C29.2317581,23.8378372 28.1687851,25.4310379 26.7999115,26.7999115 Z" id="Shape"></path>
                        <path d="M16.4998759,20 C18.4296351,20 20,18.3694476 20,16.3654094 C20,14.7041842 18.9210722,13.2996821 17.452966,12.8676863 L17.452966,8.98977575 C17.452966,8.44307932 17.0263092,8 16.4998759,8 C15.9734425,8 15.5467858,8.44307932 15.5467858,8.98977575 L15.5467858,12.8676863 C14.0786795,13.2996821 13,14.7041842 13,16.3654094 C13,18.3694476 14.5701166,20 16.4998759,20 Z M16.4998759,14.7103703 C17.378754,14.7103703 18.0938198,15.4527022 18.0938198,16.3654094 C18.0938198,17.2781167 17.378754,18.0204485 16.4998759,18.0204485 C15.6209978,18.0204485 14.9061802,17.2781167 14.9061802,16.3654094 C14.9061802,15.4527022 15.6209978,14.7103703 16.4998759,14.7103703 Z" id="Shape"></path>
                        <path d="M17,7 C17.5523437,7 18,6.54685645 18,5.9877422 L18,4.0122578 C18,3.45340714 17.5523437,3 17,3 C16.4476563,3 16,3.45340714 16,4.0122578 L16,5.9877422 C16,6.54685645 16.4476563,7 17,7 Z" id="Shape"></path>
                        <path d="M4.0122578,18 L5.9877422,18 C6.54659286,18 7,17.5523437 7,17 C7,16.4476563 6.54659286,16 5.9877422,16 L4.0122578,16 C3.45314355,16 3,16.4476563 3,17 C3,17.5523437 3.45314355,18 4.0122578,18 Z" id="Shape"></path>
                        <path d="M26,17 C26,17.5523437 26.4531734,18 27.0123245,18 L28.9876755,18 C29.5468266,18 30,17.5523437 30,17 C30,16.4476563 29.5468266,16 28.9876755,16 L27.0123245,16 C26.4531734,16 26,16.4476563 26,17 Z" id="Shape"></path>
                        <path d="M8.43677589,9.73195549 C8.61562763,9.91057232 8.85004269,10 9.08421931,10 C9.31863438,10 9.55304938,9.91081078 9.73190119,9.73195549 C10.0893663,9.37424484 10.0893663,8.79451509 9.73190119,8.43680444 L8.5631645,7.26828299 C8.20569941,6.91057234 7.62574274,6.91057234 7.26827766,7.26828299 C6.91057411,7.62575518 6.91057411,8.20572338 7.26827766,8.56319557 L8.43677589,9.73195549 Z" id="Shape"></path>
                        <path d="M23.9309843,10 C24.1693066,10 24.4076289,9.90908079 24.5892193,9.72724244 L25.7272507,8.58941906 C26.0909164,8.22574228 26.0909164,7.63634345 25.7272507,7.27266667 C25.3638274,6.9089899 24.7744465,6.90923234 24.4107806,7.27266667 L23.2727493,8.41073255 C22.9090836,8.77416683 22.9090836,9.36356566 23.2727493,9.72724244 C23.4545822,9.90908079 23.6929045,10 23.9309843,10 Z" id="Shape"></path>
                        <path d="M23.4042572,24.2594746 C21.5177085,26.0506862 19.0657402,27.0370283 16.5000438,27.0370283 C13.9343474,27.0370283 11.4823791,26.0504306 9.59583038,24.2594746 C9.20930345,23.8921842 8.60721339,23.9179993 8.25141039,24.3167279 C7.89560739,24.7157121 7.92038476,25.336553 8.30715952,25.7035878 C10.5457946,27.8293736 13.4554009,29 16.5000438,29 C19.544439,29 22.4540453,27.8293736 24.6929281,25.7038434 C25.079455,25.336553 25.1044802,24.7157121 24.7486772,24.3169835 C24.3926265,23.9182549 23.7907842,23.8924398 23.4042572,24.2594746 Z" id="Shape"></path>
                    </g>
                </g>
            </g>
        </g>
    </g>
</svg>