<?xml version="1.0" encoding="UTF-8"?>
<svg width="21px" height="40px" viewBox="0 0 21 40" version="1.1" xmlns="http://www.w3.org/2000/svg" xmlns:xlink="http://www.w3.org/1999/xlink">
    <!-- Generator: Sketch 50.2 (55047) - http://www.bohemiancoding.com/sketch -->
    <title>rocket-launch (1)</title>
    <desc>Created with Sketch.</desc>
    <defs></defs>
    <g id="Page-1" stroke="none" stroke-width="1" fill="none" fill-rule="evenodd">
        <g id="Entidades-Programa-Copy" transform="translate(-39.000000, -265.000000)" fill="#FFFFFF" fill-rule="nonzero">
            <g id="Menu-izquierdo">
                <g id="Group-7" transform="translate(39.000000, 265.000000)">
                    <g id="rocket-launch-(1)">
                        <path d="M18.1923824,20.7634018 C18.8371551,13.3097638 16.3396813,5.71147769 11.0998834,0.248880033 C10.7815779,-0.0829600112 10.2184221,-0.0829600112 9.9001166,0.248880033 C4.66031869,5.71147769 2.16284493,13.3012551 2.80761757,20.7634018 C0.995724835,22.7969856 0,25.4176711 0,28.208531 C0,31.024917 1.02837155,33.7051635 2.89739604,35.7472561 C3.35445006,36.2492705 4.52157015,36.0195351 4.33385154,34.9134016 C4.23591139,34.3348087 4.1134862,33.7732333 4.1134862,33.2201665 C4.1134862,31.841754 4.51340847,30.5314113 5.25612126,29.4252778 C5.37854644,29.4933476 5.51729499,29.5358912 5.66420521,29.5358912 L15.3357948,29.5358912 C15.482705,29.5358912 15.6214536,29.4933476 15.7438787,29.4252778 C16.4865915,30.5314113 16.8865138,31.841754 16.8865138,33.2201665 C16.8865138,33.7732333 16.7477653,34.3263 16.6661485,34.9134016 C16.4947532,36.1386572 17.7190051,36.1812008 18.102604,35.7472561 C19.9634668,33.6966548 21,31.024917 21,28.208531 C20.9918383,25.4176711 20.0042752,22.7884769 18.1923824,20.7634018 Z M10.4959192,2.15483311 C12.0139914,3.85657693 13.2545667,5.77103873 14.2176448,7.80462259 L6.78235523,7.80462259 C7.73727167,5.76253001 8.97784687,3.85657693 10.4959192,2.15483311 Z M2.49747377,32.0204371 C1.97512631,30.8377252 1.70579091,29.5443999 1.70579091,28.208531 C1.70579091,26.4046825 2.20365332,24.6774126 3.13408473,23.1968954 C3.1422464,23.2649652 4.03186941,26.813101 4.37465993,27.723534 C3.35445006,28.9487895 2.70967742,30.4293067 2.49747377,32.0204371 Z M14.7726389,27.7575689 L6.21919938,27.7575689 C3.81966576,21.8865527 3.8441508,15.3263303 6.02331908,9.56592744 L14.9685192,9.56592744 C17.1476875,15.3263303 17.1721726,21.8865527 14.7726389,27.7575689 Z M16.6253401,27.723534 C17.0987175,26.4557348 17.8577536,23.2479477 17.8659153,23.1968954 C18.7963467,24.6689038 19.2942091,26.3961738 19.2942091,28.208531 C19.2942091,29.5443999 19.016712,30.8377252 18.5025262,32.0204371 C18.2821609,30.4293067 17.6373883,28.9487895 16.6253401,27.723534 Z" id="Shape"></path>
                        <path d="M8,30 C7.44230769,30 7,30.4500684 7,30.995896 L7,36.004104 C7,36.5595075 7.45192308,37 8,37 C8.54807692,37 9,36.5499316 9,36.004104 L9,30.995896 C9,30.4404925 8.54807692,30 8,30 Z" id="Shape"></path>
                        <path d="M11.0096154,30 C10.7307692,30 10.4807692,30.0956175 10.2980769,30.247012 C10.2980769,30.247012 10.2980769,30.247012 10.2884615,30.2549801 C10.1730769,30.3505976 10.0865385,30.4780876 10.0384615,30.6215139 C10.0192308,30.6932271 10,30.7649402 10,30.8446215 L10,39.1713147 C10,39.2350598 10.0096154,39.2988048 10.0288462,39.3625498 C10.1346154,39.7290837 10.5288462,40 11,40 C11.4711538,40 11.8653846,39.7290837 11.9711538,39.3625498 C11.9903846,39.2988048 12,39.2350598 12,39.1713147 L12,30.8286853 C12,30.749004 11.9903846,30.6772908 11.9615385,30.6055777 C11.8557692,30.2549801 11.4711538,30 11.0096154,30 Z" id="Shape"></path>
                        <path d="M13.9999247,30 C13.4422744,30 13,30.4500684 13,30.995896 L13,36.004104 C13,36.5595075 13.451889,37 13.9999247,37 C14.5479603,37 14.9998494,36.5499316 14.9998494,36.004104 L14.9998494,30.995896 C15.009464,30.4404925 14.557575,30 13.9999247,30 Z" id="Shape"></path>
                    </g>
                </g>
            </g>
        </g>
    </g>
</svg>