<?xml version="1.0" encoding="UTF-8"?>
<svg width="21px" height="21px" viewBox="0 0 21 21" version="1.1" xmlns="http://www.w3.org/2000/svg" xmlns:xlink="http://www.w3.org/1999/xlink">
    <!-- Generator: Sketch 50.2 (55047) - http://www.bohemiancoding.com/sketch -->
    <title>instagram (1)</title>
    <desc>Created with Sketch.</desc>
    <defs></defs>
    <g id="Page-1" stroke="none" stroke-width="1" fill="none" fill-rule="evenodd">
        <g id="Entidades-Programa-Detalle-Copy-5" transform="translate(-1337.000000, -766.000000)" fill="#81D7EA" fill-rule="nonzero">
            <g id="Ficha" transform="translate(830.000000, 0.000000)">
                <g id="Group-3" transform="translate(33.000000, 489.000000)">
                    <g id="Group-Copy-5" transform="translate(0.000000, 260.000000)">
                        <g id="instagram-(1)" transform="translate(474.000000, 17.000000)">
                            <path d="M10.5,6.234375 C8.12519531,6.234375 6.19335937,8.16621094 6.19335937,10.5410156 C6.19335937,12.9158203 8.12519531,14.8476562 10.5,14.8476562 C12.8748047,14.8476562 14.8066406,12.9158203 14.8066406,10.5410156 C14.8066406,8.16621094 12.8748047,6.234375 10.5,6.234375 Z M10.5,6.234375 C8.12519531,6.234375 6.19335937,8.16621094 6.19335937,10.5410156 C6.19335937,12.9158203 8.12519531,14.8476562 10.5,14.8476562 C12.8748047,14.8476562 14.8066406,12.9158203 14.8066406,10.5410156 C14.8066406,8.16621094 12.8748047,6.234375 10.5,6.234375 Z M17.9238281,0 L3.07617187,0 C1.378125,0 0,1.378125 0,3.07617187 L0,17.9238281 C0,19.621875 1.378125,21 3.07617187,21 L17.9238281,21 C19.621875,21 21,19.621875 21,17.9238281 L21,3.07617187 C21,1.378125 19.621875,0 17.9238281,0 Z M10.5,16.078125 C7.44847852,16.078125 4.96289062,13.5925371 4.96289062,10.5410156 C4.96289062,7.48941211 7.44847852,5.00390625 10.5,5.00390625 C13.5515215,5.00390625 16.0371094,7.48941211 16.0371094,10.5410156 C16.0371094,13.5925371 13.5515215,16.078125 10.5,16.078125 Z M17.2675781,5.00390625 C16.5908203,5.00390625 16.0371094,4.45019531 16.0371094,3.7734375 C16.0371094,3.09667969 16.5908203,2.54296875 17.2675781,2.54296875 C17.9443359,2.54296875 18.4980469,3.09667969 18.4980469,3.7734375 C18.4980469,4.45019531 17.9443359,5.00390625 17.2675781,5.00390625 Z M10.5,6.234375 C8.12519531,6.234375 6.19335937,8.16621094 6.19335937,10.5410156 C6.19335937,12.9158203 8.12519531,14.8476562 10.5,14.8476562 C12.8748047,14.8476562 14.8066406,12.9158203 14.8066406,10.5410156 C14.8066406,8.16621094 12.8748047,6.234375 10.5,6.234375 Z M10.5,6.234375 C8.12519531,6.234375 6.19335937,8.16621094 6.19335937,10.5410156 C6.19335937,12.9158203 8.12519531,14.8476562 10.5,14.8476562 C12.8748047,14.8476562 14.8066406,12.9158203 14.8066406,10.5410156 C14.8066406,8.16621094 12.8748047,6.234375 10.5,6.234375 Z M10.5,6.234375 C8.12519531,6.234375 6.19335937,8.16621094 6.19335937,10.5410156 C6.19335937,12.9158203 8.12519531,14.8476562 10.5,14.8476562 C12.8748047,14.8476562 14.8066406,12.9158203 14.8066406,10.5410156 C14.8066406,8.16621094 12.8748047,6.234375 10.5,6.234375 Z" id="Shape"></path>
                        </g>
                    </g>
                </g>
            </g>
        </g>
    </g>
</svg>