<?xml version="1.0" encoding="UTF-8"?>
<svg width="27px" height="27px" viewBox="0 0 27 27" version="1.1" xmlns="http://www.w3.org/2000/svg" xmlns:xlink="http://www.w3.org/1999/xlink">
    <!-- Generator: Sketch 50.2 (55047) - http://www.bohemiancoding.com/sketch -->
    <title>analysis</title>
    <desc>Created with Sketch.</desc>
    <defs></defs>
    <g id="Page-1" stroke="none" stroke-width="1" fill="none" fill-rule="evenodd">
        <g id="Entidades-Programa-Copy" transform="translate(-35.000000, -399.000000)" fill="#FFFFFF" fill-rule="nonzero">
            <g id="Menu-izquierdo">
                <g id="Group-6-Copy" transform="translate(35.000000, 399.000000)">
                    <g id="analysis">
                        <path d="M27,6.94738704 L27,25.9473748 C27,26.5286876 26.5277678,27 25.9453206,27 L1.05467946,27 C0.472232202,27 0,26.5286876 0,25.9473748 L0,1.10521416 C0,0.523901407 0.472232202,0.0525889906 1.05467946,0.0525889906 C1.63712667,0.0525889906 2.10935888,0.523901407 2.10935888,1.10521416 L2.10935888,15.265186 L3.56527054,13.783271 C3.97310745,13.3681947 4.64079591,13.3616029 5.05668224,13.7686455 C5.47256857,14.175688 5.47917321,14.842282 5.07133631,15.2573583 L2.10935888,18.2720686 L2.10935888,24.8947496 L4.16608697,24.8947496 L4.16608697,19.6841519 C4.16608697,19.1028391 4.63831917,18.6315267 5.22076643,18.6315267 C5.80321364,18.6315267 6.27544584,19.1028391 6.27544584,19.6841519 L6.27544584,24.8947496 L8.27933676,24.8947496 L8.27933676,15.2723958 C8.27933676,14.6873751 8.75714165,14.2146207 9.343304,14.2197706 C9.92203612,14.2249204 10.3884893,14.6945849 10.3884893,15.2723958 L10.3884893,24.8947496 L12.3923802,24.8947496 L12.3923802,15.2631261 C12.3923802,14.6853151 12.8590397,14.2156507 13.4377719,14.2105009 C14.0239342,14.205351 14.5017391,14.6781054 14.5017391,15.2631261 L14.5017391,24.8947496 L16.5584672,24.8947496 L16.5584672,14.9998668 C16.5584672,14.4199959 17.0282227,13.9495075 17.6092251,13.9472416 C18.1933235,13.9451816 18.6678261,14.417112 18.6678261,14.9998668 L18.6678261,24.8947496 L20.7245542,24.8947496 L20.7245542,11.210416 C20.7245542,10.6305453 21.1943096,10.1600568 21.7753121,10.1577909 C22.3592041,10.1557309 22.833913,10.6276613 22.833913,11.210416 L22.833913,24.8947496 L24.8904347,24.8947496 L24.8904347,6.94738704 C24.8904347,6.3675162 25.3603966,5.89682172 25.9411927,5.89476181 C26.5252911,5.89249588 27,6.36442629 27,6.94738704 Z M8.47974651,11.7095376 L10.0260593,10.1561429 C10.0289489,10.153259 10.0318384,10.1503751 10.0345215,10.1474912 C10.253094,9.92295864 10.5364746,9.78947505 10.7940558,9.78947505 L10.8000413,9.78947505 C11.045858,9.79132898 11.3211891,9.92110466 11.5368721,10.1365736 L12.7768944,11.3741806 C13.3702806,11.966205 14.1436434,12.300532 14.9551893,12.3155695 C14.9735585,12.3159815 14.9921341,12.3161875 15.0107096,12.3161875 C15.8358776,12.3161875 16.6499003,11.9746508 17.2515422,11.3741806 C17.2536062,11.3721207 17.2556701,11.3700608 17.2577341,11.3680008 L26.6972183,1.79075949 C27.1056743,1.37650718 27.1001017,0.70991327 26.6848345,0.302252736 C26.2695675,-0.105407799 25.601879,-0.100052002 25.1934229,0.314406347 L15.7574474,9.88793977 C15.5500203,10.093933 15.2792298,10.2109371 15.0113288,10.2109371 C15.0057561,10.2109371 14.9999771,10.2109371 14.9944044,10.2107311 C14.7353784,10.2059933 14.4707798,10.0873412 14.2685125,9.88546785 L13.0284902,8.64786077 C12.4214819,8.04203482 11.6155087,7.69081644 10.8173785,7.68422466 C10.8095355,7.68422466 10.8018988,7.68422466 10.7940558,7.68422466 C9.9676495,7.68422466 9.14248149,8.04471272 8.52597903,8.67608188 L6.98338138,10.2257686 C6.57286135,10.638167 6.57492528,11.304761 6.98812843,11.7144814 C7.40133163,12.1242018 8.06922648,12.1219359 8.47974651,11.7095376 Z" id="Shape"></path>
                    </g>
                </g>
            </g>
        </g>
    </g>
</svg>