<?xml version="1.0" encoding="UTF-8"?>
<svg width="28px" height="28px" viewBox="0 0 28 28" version="1.1" xmlns="http://www.w3.org/2000/svg" xmlns:xlink="http://www.w3.org/1999/xlink">
    <!-- Generator: Sketch 50.2 (55047) - http://www.bohemiancoding.com/sketch -->
    <title>search (2)</title>
    <desc>Created with Sketch.</desc>
    <defs></defs>
    <g id="Page-1" stroke="none" stroke-width="1" fill="none" fill-rule="evenodd">
        <g id="Entidades-Programa-Copy" transform="translate(-35.000000, -222.000000)" fill="#81D7EA" fill-rule="nonzero">
            <g id="Menu-izquierdo">
                <g id="Group-6" transform="translate(35.000000, 222.000000)">
                    <g id="search-(2)">
                        <path d="M11.030303,19.7979798 L14.7070707,19.7979798 L14.7070707,22.0606061 L11.030303,22.0606061 L11.030303,19.7979798 Z M6.78787882,19.5151515 C6.00676348,19.5151515 5.37373737,20.1481776 5.37373737,20.9292929 C5.37373737,21.7101872 6.00676348,22.3434343 6.78787882,22.3434343 C7.5689941,22.3434343 8.2020202,21.7101872 8.2020202,20.9292929 C8.2020202,20.1481776 7.5689941,19.5151515 6.78787882,19.5151515 Z M22.0606061,12.7272727 L11.030303,12.7272727 L11.030303,14.989899 L22.0606061,14.989899 L22.0606061,12.7272727 Z M6.78787882,12.4444444 C6.00676348,12.4444444 5.37373737,13.0774705 5.37373737,13.8585859 C5.37373737,14.6397012 6.00676348,15.2727273 6.78787882,15.2727273 C7.5689941,15.2727273 8.2020202,14.6397012 8.2020202,13.8585859 C8.2020202,13.0774705 7.5689941,12.4444444 6.78787882,12.4444444 Z M22.0606061,6.22222222 L11.030303,6.22222222 L11.030303,8.48484848 L22.0606061,8.48484848 L22.0606061,6.22222222 Z M6.78787882,5.93939394 C6.00676348,5.93939394 5.37373737,6.57259158 5.37373737,7.35342488 C5.37373737,8.13447913 6.00676348,8.76767677 6.78787882,8.76767677 C7.5689941,8.76767677 8.2020202,8.13447913 8.2020202,7.35342488 C8.2020202,6.57259158 7.5689941,5.93939394 6.78787882,5.93939394 Z M2.18747661,24.7188919 L2.18747661,3.28132178 C2.18747661,2.67809362 2.67809362,2.18747661 3.28132178,2.18747661 L24.7188919,2.18747661 C25.3219064,2.18747661 25.8125234,2.67809362 25.8125234,3.28132178 L25.8125234,15.6407677 L28,15.6407677 L28,3.28132178 C28,1.4720647 26.528149,0 24.7188919,0 L3.28132178,0 C1.4720647,0 0,1.4720647 0,3.28132178 L0,24.7188919 C0,26.528149 1.4720647,28 3.28132178,28 L15.9140688,28 L15.9140688,25.8125234 L3.28132178,25.8125234 C2.67809362,25.8125234 2.18747661,25.3219064 2.18747661,24.7188919 Z M26.4716846,28 L24.3195025,25.8246113 C23.5913412,26.2644265 22.7407289,26.5175176 21.8326913,26.5175176 C19.1512252,26.5175176 16.969697,24.3124664 16.969697,21.6022998 C16.969697,18.89192 19.1512252,16.6868687 21.8326913,16.6868687 C24.5139463,16.6868687 26.6954744,18.89192 26.6954744,21.6022998 C26.6954744,22.6050615 26.3965251,23.5384684 25.8845532,24.3169477 L28,26.4552051 L26.4716846,28 Z M21.6364686,24.3232323 C23.1180101,24.3232323 24.3232323,23.1180101 24.3232323,21.6364686 C24.3232323,20.1549271 23.1180101,18.9494949 21.6364686,18.9494949 C20.1549271,18.9494949 18.9494949,20.1549271 18.9494949,21.6364686 C18.9494949,23.1180101 20.1549271,24.3232323 21.6364686,24.3232323 Z" id="Shape"></path>
                    </g>
                </g>
            </g>
        </g>
    </g>
</svg>