<?xml version="1.0" encoding="UTF-8"?>
<svg width="25px" height="21px" viewBox="0 0 25 21" version="1.1" xmlns="http://www.w3.org/2000/svg" xmlns:xlink="http://www.w3.org/1999/xlink">
    <!-- Generator: Sketch 50.2 (55047) - http://www.bohemiancoding.com/sketch -->
    <title>gorjeo</title>
    <desc>Created with Sketch.</desc>
    <defs></defs>
    <g id="Page-1" stroke="none" stroke-width="1" fill="none" fill-rule="evenodd">
        <g id="Entidades-Programa-Detalle-Copy-5" transform="translate(-1335.000000, -571.000000)" fill="#81D7EA" fill-rule="nonzero">
            <g id="Ficha" transform="translate(830.000000, 0.000000)">
                <g id="Group-3" transform="translate(33.000000, 489.000000)">
                    <g id="Group-Copy-2" transform="translate(0.000000, 65.000000)">
                        <g id="gorjeo" transform="translate(472.000000, 17.000000)">
                            <path d="M9.32667294,21 C8.24559598,21 7.13285725,20.9101467 6.01344289,20.7300486 C4.04183167,20.4125277 2.04599728,19.3540597 1.48123567,19.0371262 L0,18.2059341 L1.6036865,17.664661 C3.35671726,17.0730778 4.42310776,16.70603 5.74317367,16.131282 C4.42139112,15.4743154 3.402684,14.2925193 2.9123084,12.7648174 L2.53923385,11.6024014 L2.84517024,11.6503623 C2.55506474,11.350264 2.32599393,11.0456632 2.14842111,10.7686645 C1.51690278,9.78419332 1.18254713,8.58125529 1.25369068,7.55038925 L1.32388057,6.53577125 L1.91572635,6.77107334 C1.66605633,6.2871575 1.4856225,5.77035418 1.37957473,5.22868952 C1.121131,3.90770886 1.33742266,2.50431379 1.98877726,1.27710167 L2.50432963,0.305746306 L3.19383091,1.15573119 C5.37448595,3.84428305 8.13649647,5.43913023 11.4146316,5.90601504 C11.2807367,4.95873808 11.3810625,4.0445443 11.7131293,3.22509784 C12.099746,2.27096926 12.7875306,1.46189801 13.7015251,0.885192456 C14.7166083,0.244865346 15.9476017,-0.0654124437 17.1677233,0.0115208158 C18.462231,0.0931522372 19.6375303,0.590966966 20.5709795,1.45211004 C21.0268324,1.33054382 21.3627139,1.20075575 21.8166594,1.02535583 C22.0897897,0.919841807 22.3995407,0.800037401 22.787111,0.663006217 L24.2153228,0.157948424 L23.2839715,2.8880011 C23.3453877,2.88271565 23.4087112,2.87821319 23.4748957,2.87527679 L25,2.80441212 L24.0985939,4.06881839 C24.0469052,4.14124919 24.0337446,4.16180385 24.0154342,4.19018887 C23.9427647,4.30255446 23.8523571,4.44232625 22.6150695,6.1379893 C22.3053184,6.56259019 22.1506337,7.11560889 22.1794344,7.69544658 C22.2891061,9.89890802 22.0257033,11.892516 21.3960922,13.620675 C20.8006226,15.2556528 19.8778543,16.6584605 18.6537273,17.7901424 C17.1389226,19.1902096 15.2073654,20.1488406 12.912461,20.6390207 C11.7867524,20.8794126 10.5778841,21 9.32667294,21 Z" id="Shape"></path>
                        </g>
                    </g>
                </g>
            </g>
        </g>
    </g>
</svg>