<?xml version="1.0" encoding="UTF-8"?>
<svg width="40px" height="19px" viewBox="0 0 40 19" version="1.1" xmlns="http://www.w3.org/2000/svg" xmlns:xlink="http://www.w3.org/1999/xlink">
    <!-- Generator: Sketch 50.2 (55047) - http://www.bohemiancoding.com/sketch -->
    <title>line-chart</title>
    <desc>Created with Sketch.</desc>
    <defs></defs>
    <g id="Page-1" stroke="none" stroke-width="1" fill="none" fill-rule="evenodd">
        <g id="Entidades-Programa-Copy" transform="translate(-28.000000, -454.000000)" fill="#FFFFFF" fill-rule="nonzero">
            <g id="Menu-izquierdo">
                <g id="Group-7-Copy" transform="translate(28.000000, 454.000000)">
                    <g id="line-chart">
                        <path d="M35.7528208,7.83053083e-05 C33.4109504,7.83053083e-05 31.5057197,1.90970986 31.5057197,4.25698978 C31.5057197,5.11310171 31.7600161,5.91032806 32.1956402,6.57850725 L27.6071336,11.1776129 C26.9404161,10.7409825 26.1450271,10.4860987 25.2908881,10.4860987 C24.4058117,10.4860987 23.5832352,10.7592277 22.9021428,11.2253792 L18.2663706,6.57819403 C18.7019166,5.91001484 18.9560567,5.1128668 18.9560567,4.25691147 C18.9560567,1.90963155 17.0508261,0 14.7089556,0 C12.3670852,0 10.4618546,1.90963155 10.4618546,4.25691147 C10.4618546,5.1128668 10.7160728,5.90977992 11.1514626,6.57795912 L6.56279968,11.1772997 C5.89623848,10.7408259 5.10100566,10.4860987 4.24710108,10.4860987 C1.90523065,10.4860987 0,12.3958086 0,14.7430885 C0,17.0903684 1.90523065,19 4.24710108,19 C6.58897151,19 8.49420216,17.0903684 8.49420216,14.7430885 C8.49420216,13.8869766 8.23990578,13.0897502 7.80428163,12.4214927 L12.3927883,7.82238708 C13.0595057,8.25901747 13.8548948,8.51390125 14.7090338,8.51390125 C15.5630946,8.51390125 16.3584837,8.25901747 17.025123,7.82238708 L21.6865201,12.495178 C21.2798022,13.1480877 21.0438651,13.9182987 21.0438651,14.7430102 C21.0438651,17.0902901 22.9490958,18.9999217 25.2909662,18.9999217 C27.6328367,18.9999217 29.5380673,17.0902901 29.5380673,14.7430102 C29.5380673,13.8870549 29.2838491,13.0900635 28.8484593,12.4219626 L33.4372003,7.82262199 C34.1038396,8.25909578 34.8990725,8.51382295 35.7528989,8.51382295 C38.0947693,8.51382295 40,6.60419139 40,4.25691147 C40,1.90955325 38.0946912,7.83053083e-05 35.7528208,7.83053083e-05 Z M4.24710108,17.2404014 C2.87319751,17.2404014 1.75546532,16.1200874 1.75546532,14.7430885 C1.75546532,13.3660114 2.87319751,12.2456973 4.24710108,12.2456973 C5.62092652,12.2456973 6.73873684,13.3660114 6.73873684,14.7430885 C6.73873684,16.1200874 5.62100465,17.2404014 4.24710108,17.2404014 Z M14.7090338,6.75430267 C13.3352083,6.75430267 12.217398,5.63398863 12.217398,4.25691147 C12.217398,2.87991263 13.3351302,1.75952028 14.7090338,1.75952028 C16.0829373,1.75952028 17.2006695,2.87983432 17.2006695,4.25691147 C17.2006695,5.63398863 16.0829373,6.75430267 14.7090338,6.75430267 Z M25.2908881,17.2404014 C23.9170627,17.2404014 22.7992523,16.1200874 22.7992523,14.7430102 C22.7992523,13.3659331 23.9169845,12.245619 25.2908881,12.245619 C26.6647135,12.245619 27.7825239,13.3659331 27.7825239,14.7430102 C27.7824457,16.1200874 26.6647135,17.2404014 25.2908881,17.2404014 Z M35.7528208,6.75430267 C34.3789954,6.75430267 33.261185,5.63398863 33.261185,4.25691147 C33.261185,2.87991263 34.3789172,1.75952028 35.7528208,1.75952028 C37.1266462,1.75952028 38.2444566,2.87983432 38.2444566,4.25691147 C38.2444566,5.63398863 37.1266462,6.75430267 35.7528208,6.75430267 Z" id="Shape"></path>
                        <path d="M12.782123,10.2177808 C12.4916864,9.92740641 12.0208853,9.92740641 11.7304488,10.2177808 L10.2177695,11.7304809 C9.92739914,12.0208553 9.92739914,12.491729 10.2178357,12.7821696 C10.363054,12.9273899 10.5533468,13 10.7436397,13 C10.9339325,13 11.1242916,12.9273237 11.2694437,12.7821696 L12.782123,11.2694694 C13.0726257,10.9790951 13.0726257,10.5081551 12.782123,10.2177808 Z" id="Shape"></path>
                        <path d="M28.7822281,5.2177731 C28.4917884,4.92739794 28.0210483,4.92739794 27.7304762,5.21783929 L26.2177802,6.73054361 C25.9274066,7.02091877 25.9274066,7.49179383 26.2177802,7.78223518 C26.3630662,7.92738966 26.5533612,8 26.7436561,8 C26.9340173,8 27.1242461,7.92732347 27.2694659,7.78216899 L28.7821619,6.26946466 C29.0726017,5.97902331 29.0726017,5.50814825 28.7822281,5.2177731 Z" id="Shape"></path>
                    </g>
                </g>
            </g>
        </g>
    </g>
</svg>