<?xml version="1.0" encoding="UTF-8"?>
<svg width="25px" height="17px" viewBox="0 0 25 17" version="1.1" xmlns="http://www.w3.org/2000/svg" xmlns:xlink="http://www.w3.org/1999/xlink">
    <!-- Generator: Sketch 50.2 (55047) - http://www.bohemiancoding.com/sketch -->
    <title>youtube</title>
    <desc>Created with Sketch.</desc>
    <defs></defs>
    <g id="Page-1" stroke="none" stroke-width="1" fill="none" fill-rule="evenodd">
        <g id="Entidades-Programa-Detalle-Copy-5" transform="translate(-1335.000000, -638.000000)" fill="#81D7EA" fill-rule="nonzero">
            <g id="Ficha" transform="translate(830.000000, 0.000000)">
                <g id="Group-3" transform="translate(33.000000, 489.000000)">
                    <g id="Group-Copy-3" transform="translate(0.000000, 130.000000)">
                        <g id="youtube" transform="translate(472.000000, 19.000000)">
                            <path d="M23.9375,1.63818182 C23.259375,0.445090909 22.5234375,0.225636364 21.025,0.142181818 C19.528125,0.0417272727 15.7640625,0 12.503125,0 C9.2359375,0 5.4703125,0.0417272727 3.975,0.140636364 C2.4796875,0.225636364 1.7421875,0.443545455 1.0578125,1.63818182 C0.359375,2.82972727 0,4.88209091 0,8.49536364 C0,8.49845455 0,8.5 0,8.5 C0,8.50309091 0,8.50463636 0,8.50463636 L0,8.50772727 C0,12.1055455 0.359375,14.1733636 1.0578125,15.3525455 C1.7421875,16.5456364 2.478125,16.762 3.9734375,16.8624545 C5.4703125,16.949 9.2359375,17 12.503125,17 C15.7640625,17 19.528125,16.949 21.0265625,16.864 C22.525,16.7635455 23.2609375,16.5471818 23.9390625,15.3540909 C24.64375,14.1749091 25,12.1070909 25,8.50927273 C25,8.50927273 25,8.50463636 25,8.50154545 C25,8.50154545 25,8.49845455 25,8.49690909 C25,4.88209091 24.64375,2.82972727 23.9375,1.63818182 Z M9.375,13.1363636 L9.375,3.86363636 L17.1875,8.5 L9.375,13.1363636 Z" id="Shape"></path>
                        </g>
                    </g>
                </g>
            </g>
        </g>
    </g>
</svg>