<svg xmlns="http://www.w3.org/2000/svg" viewBox="0 0 512 512"><defs><style>.cls-1{fill:#ef2648;}.cls-2{fill:#ffd4b0;}.cls-3{fill:#ffdc13;}.cls-4{fill:#edc4a2;}.cls-5{fill:#b20d24;}.cls-6{fill:#ffa511;}.cls-7{fill:#f08015;}.cls-8{fill:#4db5ff;}.cls-9{fill:#3596d8;}</style></defs><title>collaboration_1</title><g id="Layer_2" data-name="Layer 2"><g id="Capa_1" data-name="Capa 1"><path class="cls-1" d="M187.73,204.8V153.6a34.14,34.14,0,0,1,34.14-34.13h0a76.33,76.33,0,0,0,68.26,0h0a34.14,34.14,0,0,1,34.14,34.13v51.2a17.07,17.07,0,0,1-17.07,17.07H204.8A17.07,17.07,0,0,1,187.73,204.8Z"/><circle class="cls-2" cx="256" cy="51.2" r="42.67"/><path class="cls-3" d="M59.73,264.53A8.53,8.53,0,0,1,51.2,256,204.61,204.61,0,0,1,175.85,67.47a8.53,8.53,0,0,1,6.7,15.7h0A187.56,187.56,0,0,0,68.27,256,8.54,8.54,0,0,1,59.73,264.53Z"/><path class="cls-3" d="M452.27,264.53a8.54,8.54,0,0,1-8.54-8.53A187.56,187.56,0,0,0,329.45,83.17a8.53,8.53,0,0,1,6.7-15.7A204.61,204.61,0,0,1,460.8,256,8.53,8.53,0,0,1,452.27,264.53Z"/><path class="cls-3" d="M256,460.8a203.86,203.86,0,0,1-80.15-16.27,8.53,8.53,0,1,1,6.7-15.7,189.25,189.25,0,0,0,146.9,0,8.53,8.53,0,1,1,6.7,15.7A203.86,203.86,0,0,1,256,460.8Z"/><path class="cls-3" d="M196.27,477.87a8.52,8.52,0,0,1-7.58-4.59l-17.07-32.65a8.53,8.53,0,0,1,3.61-11.51,10,10,0,0,1,1.56-.64l34.14-10a8.54,8.54,0,0,1,4.79,16.39l-24.16,7.08,12.27,23.44a8.55,8.55,0,0,1-7.56,12.49Z"/><path class="cls-3" d="M452.27,264.53a8.51,8.51,0,0,1-6-2.5l-25.6-25.6a8.53,8.53,0,0,1,12.07-12.06l19.57,19.56,19.56-19.56a8.53,8.53,0,0,1,12.07,12.06L458.3,262A8.49,8.49,0,0,1,452.27,264.53Z"/><path class="cls-3" d="M162.13,119.47a8.25,8.25,0,0,1-3.68-.86,8.53,8.53,0,0,1-4-11.38l13.31-27.77L141.53,67.52A8.54,8.54,0,0,1,148.62,52l34.13,15.59a8.54,8.54,0,0,1,4.18,11.33l-.05.1-17.07,35.61A8.54,8.54,0,0,1,162.13,119.47Z"/><path class="cls-4" d="M281.5,17.17A42.49,42.49,0,0,1,222,76.7,42.55,42.55,0,1,0,281.5,17.17Z"/><circle class="cls-2" cx="435.2" cy="332.8" r="42.67"/><path class="cls-4" d="M460.7,298.77a42.49,42.49,0,0,1-59.53,59.53,42.55,42.55,0,1,0,59.53-59.53Z"/><circle class="cls-2" cx="76.8" cy="332.8" r="42.67"/><path class="cls-4" d="M102.3,298.77A42.49,42.49,0,0,1,42.77,358.3a42.55,42.55,0,1,0,59.53-59.53Z"/><path class="cls-5" d="M187.73,204.8a17.07,17.07,0,0,0,17.07,17.07H307.2a17.07,17.07,0,0,0,17.07-17.07V153.6a33.73,33.73,0,0,0-4.64-16.88A161.81,161.81,0,0,1,187.73,204.8Z"/><path class="cls-6" d="M8.53,486.4V435.2a34.14,34.14,0,0,1,34.14-34.13h0a76.33,76.33,0,0,0,68.26,0h0a34.14,34.14,0,0,1,34.14,34.13v51.2A17.07,17.07,0,0,1,128,503.47H25.6A17.07,17.07,0,0,1,8.53,486.4Z"/><path class="cls-7" d="M8.53,486.4A17.07,17.07,0,0,0,25.6,503.47H128a17.07,17.07,0,0,0,17.07-17.07V435.2a33.73,33.73,0,0,0-4.64-16.88A161.81,161.81,0,0,1,8.53,486.4Z"/><path class="cls-8" d="M366.93,486.4V435.2a34.14,34.14,0,0,1,34.14-34.13h0a76.33,76.33,0,0,0,68.26,0h0a34.14,34.14,0,0,1,34.14,34.13v51.2a17.07,17.07,0,0,1-17.07,17.07H384A17.07,17.07,0,0,1,366.93,486.4Z"/><path class="cls-9" d="M366.93,486.4A17.07,17.07,0,0,0,384,503.47H486.4a17.07,17.07,0,0,0,17.07-17.07V435.2a33.73,33.73,0,0,0-4.64-16.88A161.81,161.81,0,0,1,366.93,486.4Z"/><path d="M307.2,51.2A51.2,51.2,0,1,0,256,102.4,51.2,51.2,0,0,0,307.2,51.2Zm-85.33,0A34.13,34.13,0,1,1,256,85.33,34.13,34.13,0,0,1,221.87,51.2Z"/><path d="M179.2,153.6v51.2a25.6,25.6,0,0,0,25.6,25.6H307.2a25.6,25.6,0,0,0,25.6-25.6V153.6a42.72,42.72,0,0,0-42.67-42.67h-2l-1.8.9a68,68,0,0,1-60.64,0l-1.8-.9h-2A42.72,42.72,0,0,0,179.2,153.6Zm17.07,0a25.59,25.59,0,0,1,23.78-25.53,85.4,85.4,0,0,0,71.9,0,25.59,25.59,0,0,1,23.78,25.53v51.2a8.53,8.53,0,0,1-8.53,8.53H204.8a8.53,8.53,0,0,1-8.53-8.53Z"/><path d="M435.2,281.6a51.2,51.2,0,1,0,51.2,51.2A51.2,51.2,0,0,0,435.2,281.6Zm0,85.33a34.13,34.13,0,1,1,34.13-34.13A34.13,34.13,0,0,1,435.2,366.93Z"/><path d="M469.33,392.53h-2l-1.8.86a68.07,68.07,0,0,1-60.64,0l-1.8-.86h-2A42.72,42.72,0,0,0,358.4,435.2v51.2A25.6,25.6,0,0,0,384,512H486.4A25.6,25.6,0,0,0,512,486.4V435.2A42.72,42.72,0,0,0,469.33,392.53Zm25.6,93.87a8.53,8.53,0,0,1-8.53,8.53H384a8.53,8.53,0,0,1-8.53-8.53V435.2a25.59,25.59,0,0,1,23.78-25.53,85.4,85.4,0,0,0,71.9,0,25.59,25.59,0,0,1,23.78,25.53Z"/><path d="M76.8,281.6A51.2,51.2,0,1,0,128,332.8,51.2,51.2,0,0,0,76.8,281.6Zm0,85.33a34.13,34.13,0,1,1,34.13-34.13A34.13,34.13,0,0,1,76.8,366.93Z"/><path d="M25.6,512H128a25.6,25.6,0,0,0,25.6-25.6V435.2a42.72,42.72,0,0,0-42.67-42.67h-2l-1.8.86a68.07,68.07,0,0,1-60.64,0l-1.8-.86h-2A42.72,42.72,0,0,0,0,435.2v51.2A25.6,25.6,0,0,0,25.6,512Zm-8.53-76.8a25.59,25.59,0,0,1,23.78-25.53,85.4,85.4,0,0,0,71.9,0,25.59,25.59,0,0,1,23.78,25.53v51.2a8.53,8.53,0,0,1-8.53,8.53H25.6a8.53,8.53,0,0,1-8.53-8.53Z"/></g></g></svg>