<svg xmlns="http://www.w3.org/2000/svg" viewBox="0 0 512 512"><defs><style>.cls-1{fill:#ff933b;}.cls-2{fill:#f27d27;}.cls-3{fill:#636363;}.cls-4{fill:#494949;}.cls-5{fill:#feccc1;}.cls-6{fill:#f9b3a7;}.cls-7{fill:#ddf5ff;}.cls-8{fill:#8db0ff;}.cls-9{fill:#669af7;}.cls-10{fill:#ffd664;}.cls-11{fill:#f9c646;}</style></defs><title>consulting</title><g id="Layer_2" data-name="Layer 2"><g id="Layer_1-2" data-name="Layer 1"><rect class="cls-1" x="7.57" y="441.82" width="326.18" height="62.61"/><path class="cls-2" d="M311.54,441.82a80.57,80.57,0,0,0-7.07,33v.32a8.08,8.08,0,0,1-8.08,8.08H7.57v21.21H333.76V441.82Z"/><path class="cls-3" d="M504.43,504.43V474.82a60.59,60.59,0,0,0-40.72-57.24l-32-11.11H397.38l-32,11.11a60.59,60.59,0,0,0-40.72,57.24v29.61Z"/><path class="cls-4" d="M463.71,417.58l-5.66-2A60.61,60.61,0,0,1,482.21,464v40.4h22.22V474.82a60.59,60.59,0,0,0-40.72-57.24Z"/><path class="cls-5" d="M457,348.91a42.41,42.41,0,1,0-84.82,0v15.14a42.41,42.41,0,1,0,84.82,0Z"/><path class="cls-6" d="M414.55,306.49a42.64,42.64,0,0,0-8.59.87,42.43,42.43,0,0,1,33.83,41.55v15.14A42.43,42.43,0,0,1,406,405.6a42.45,42.45,0,0,0,51-41.55V348.91a42.42,42.42,0,0,0-42.41-42.42Z"/><path class="cls-3" d="M226.39,355l-14.82-5.15v.1L177.23,409.5l-34.34-59.58v-.1L128.07,355a60.58,60.58,0,0,0-40.72,57.24v29.6H267.11v-29.6A60.58,60.58,0,0,0,226.39,355Z"/><path class="cls-4" d="M226.39,355l-5.66-2a60.61,60.61,0,0,1,24.16,48.42v40.4h22.22V412.21A60.58,60.58,0,0,0,226.39,355Z"/><path class="cls-7" d="M142.89,349.92l34.34,59.58,34.34-59.58v-.1l-17.17-6H160.06l-17.18,6Z"/><path class="cls-5" d="M219.64,286.3a42.41,42.41,0,1,0-84.82,0v15.14a42.41,42.41,0,1,0,84.82,0Z"/><path class="cls-6" d="M177.23,243.88a42.54,42.54,0,0,0-8.58.87,42.43,42.43,0,0,1,33.83,41.55v15.14A42.43,42.43,0,0,1,168.65,343a42.44,42.44,0,0,0,51-41.55V286.3a42.41,42.41,0,0,0-42.41-42.42Z"/><path class="cls-8" d="M264.08,7.57H48A40.4,40.4,0,0,0,7.57,48V153A40.4,40.4,0,0,0,48,193.39H70.18l50.5,50.49V193.39h143.4A40.39,40.39,0,0,0,304.47,153V48a40.39,40.39,0,0,0-40.39-40.4Z"/><path class="cls-8" d="M264.08,7.57H48A40.4,40.4,0,0,0,7.57,48V153A40.4,40.4,0,0,0,48,193.39H70.18l50.5,50.49V193.39h143.4A40.39,40.39,0,0,0,304.47,153V48a40.39,40.39,0,0,0-40.39-40.4Z"/><path class="cls-9" d="M48,173.19A40.39,40.39,0,0,1,7.57,132.8V153A40.4,40.4,0,0,0,48,193.39H70.18l50.5,50.49v-20.2L76.1,179.11a20.19,20.19,0,0,0-14.28-5.92Z"/><path class="cls-9" d="M264.08,7.57H238.83A40.36,40.36,0,0,1,273,26.39a10.11,10.11,0,0,1-8.53,15.52H247.92a60.59,60.59,0,0,0-60.59,60.59v60.59a10.1,10.1,0,0,1-10.1,10.1H140.87a20.19,20.19,0,0,0-20.19,20.2h143.4A40.39,40.39,0,0,0,304.47,153V48a40.39,40.39,0,0,0-40.39-40.4Z"/><path class="cls-10" d="M247.92,62.1H464a40.4,40.4,0,0,1,40.4,40.4v105A40.39,40.39,0,0,1,464,247.92H360v50.49l-50.5-50.49h-61.6a40.39,40.39,0,0,1-40.39-40.39v-105a40.39,40.39,0,0,1,40.39-40.4Z"/><path class="cls-11" d="M247.92,225.7a40.39,40.39,0,0,1-40.39-40.39v22.22a40.39,40.39,0,0,0,40.39,40.39h61.6L360,298.41V276.19l-44.58-44.57a20.19,20.19,0,0,0-14.28-5.92Z"/><path class="cls-11" d="M464,62.1H438.78a40.4,40.4,0,0,1,40.4,40.4v103A20.19,20.19,0,0,1,459,225.7H380.21A20.2,20.2,0,0,0,360,245.9v2H464a40.39,40.39,0,0,0,40.4-40.39v-105A40.4,40.4,0,0,0,464,62.1Z"/><path d="M466.19,410.42l-20.67-7.17a49.93,49.93,0,0,0,19-39.2V348.91a50,50,0,0,0-100,0v15.14a49.92,49.92,0,0,0,19,39.2l-20.67,7.17a68.08,68.08,0,0,0-32.38,23.82H274.68v-22a68.22,68.22,0,0,0-45.8-64.4l-20.68-7.17a49.93,49.93,0,0,0,19-39.2V286.3a50,50,0,0,0-100,0v15.14a50,50,0,0,0,19,39.2l-20.66,7.17a68.21,68.21,0,0,0-45.81,64.4v22H7.57A7.57,7.57,0,0,0,0,441.82v62.61A7.57,7.57,0,0,0,7.57,512H322.65a7.32,7.32,0,0,1,2,0H504.43a7.57,7.57,0,0,0,7.57-7.57V474.82a68.23,68.23,0,0,0-45.81-64.4Zm-86.48-61.51a34.84,34.84,0,1,1,69.68,0v15.14a34.84,34.84,0,1,1-69.68,0ZM142.39,286.3a34.84,34.84,0,1,1,69.68,0v15.14a34.84,34.84,0,1,1-69.68,0Zm50.73,65.13,7.36,2.56-23.25,40.34L154,354l7.36-2.56ZM94.93,412.21a53.07,53.07,0,0,1,35.62-50.09l8.86-3.07,31.26,54.23a7.57,7.57,0,0,0,13.12,0l31.26-54.23,8.86,3.07a53.07,53.07,0,0,1,35.62,50.09v22H94.93ZM15.15,449.39H322a68.06,68.06,0,0,0-4.93,25.43v22h-302Zm481.7,47.46H332.25v-22a53.05,53.05,0,0,1,35.62-50.09L398.66,414h31.78l30.78,10.69a53.06,53.06,0,0,1,35.63,50.09Z"/><path d="M464,54.53H387.09a7.58,7.58,0,0,0,0,15.15H464a32.85,32.85,0,0,1,32.82,32.82v105A32.86,32.86,0,0,1,464,240.35H360a7.57,7.57,0,0,0-7.58,7.57v32.21l-37.56-37.56a7.54,7.54,0,0,0-5.36-2.22h-61.6a32.86,32.86,0,0,1-32.82-32.82v-105a32.85,32.85,0,0,1,32.82-32.82H351.68a7.58,7.58,0,1,0,0-15.15H312.05V48a48,48,0,0,0-48-48H48A48,48,0,0,0,0,48V64.71a7.58,7.58,0,1,0,15.15,0V48A32.85,32.85,0,0,1,48,15.15H264.08A32.85,32.85,0,0,1,296.9,48v6.56h-49a48,48,0,0,0-48,48v83.31H120.68a7.58,7.58,0,0,0-7.58,7.58V225.6L75.54,188a7.58,7.58,0,0,0-5.35-2.22H48A32.85,32.85,0,0,1,15.15,153V99.93A7.58,7.58,0,0,0,0,99.93V153a48,48,0,0,0,48,48H67.05l48.27,48.28a7.57,7.57,0,0,0,12.93-5.36V201H200v6.57a48,48,0,0,0,48,48h58.47l48.27,48.28A7.58,7.58,0,0,0,360,306a7.49,7.49,0,0,0,2.89-.58,7.57,7.57,0,0,0,4.68-7V255.49H464a48,48,0,0,0,48-48v-105a48,48,0,0,0-48-48Z"/></g></g></svg>