<?xml version="1.0" encoding="utf-8"?>
<!-- Generator: Adobe Illustrator 22.1.0, SVG Export Plug-In . SVG Version: 6.00 Build 0)  -->
<svg version="1.1" id="Capa_1" xmlns="http://www.w3.org/2000/svg" xmlns:xlink="http://www.w3.org/1999/xlink" x="0px" y="0px"
	 viewBox="0 0 335.9 107.9" style="enable-background:new 0 0 335.9 107.9;" xml:space="preserve">
<style type="text/css">
	.st0{fill:#FFFFFF;}
</style>
<g>
	<path class="st0" d="M47.5,42.4c-0.5,2.1-1.9,3.2-3.6,3.2c-2.1,0-3.3-1.6-2.6-4.2l6-22.2c0.5-2.1,1.9-3.2,3.6-3.2h6.6
		c4.2,0,7.1,0.8,9.2,3c1.5,1.5,2.3,3.5,2.3,6c0,7.3-6.3,11.5-14.3,11.5h-5.6L47.5,42.4z M55,30.8c4.3,0,7.2-1.9,7.2-5.3
		c0-1-0.3-1.8-1-2.4c-0.9-0.9-2.1-1.3-4-1.3H53l-2.4,9H55z"/>
	<path class="st0" d="M75.5,42.4c-0.5,2.1-1.9,3.2-3.6,3.2c-2.1,0-3.3-1.6-2.6-4.2l6.4-23.7c0.5-2.1,1.9-3.2,3.6-3.2
		c2.1,0,3.3,1.6,2.6,4.2L75.5,42.4z"/>
	<path class="st0" d="M94.5,42.8c-1.8,1.9-4.1,3-6.7,3c-3.9,0-6.6-2.5-6.6-6c0-5.2,4.2-8.1,9.7-8.1c2.4,0,4.5,0.4,6.3,1l0.1-0.3
		c0.1-0.5,0.3-1,0.3-1.7c0-1.6-1.1-2.6-4.2-2.6c-1.3,0-2.8,0.2-3.9,0.5c-0.4,0.1-0.8,0.2-1,0.2c-1.4,0-2.5-1.1-2.5-2.6
		c0-1.3,0.8-2.1,1.9-2.5c2.1-0.7,4.4-1,6.9-1c6,0,9.1,2.5,9.1,6.9c0,1.2-0.2,2.3-0.5,3.4l-2.5,9.5c-0.5,2.1-1.9,3.2-3.6,3.2
		C94.7,45.7,94.4,44.1,94.5,42.8z M96.1,36.9l0.2-0.6c-1.1-0.4-2.6-0.8-4.2-0.8c-2.6,0-4.6,1.3-4.6,3.5c0,1.4,1.1,2.4,2.9,2.4
		C93.1,41.5,95.4,39.4,96.1,36.9z"/>
	<path class="st0" d="M112.9,20.1c0.5-2.1,1.9-3.2,3.6-3.2c2.1,0,3.3,1.6,2.6,4.2l-0.5,1.8h2.1c1.5,0,2.6,1.2,2.6,2.7
		c0,1.6-1.2,2.7-2.6,2.7H117l-2.5,9.5c-0.1,0.3-0.2,0.8-0.2,1c0,0.8,0.5,1.3,1.6,1.3h0.5c1.3,0,2.3,0.8,2.3,2.4
		c0,1.4-0.7,2.2-1.6,2.6c-1.2,0.5-2.4,0.6-3.7,0.6c-3.9,0-5.8-1.9-5.8-4.4c0-0.9,0.2-1.8,0.4-2.8l2.7-10.2c-1.1-0.2-2.4-1.1-2.4-2.7
		c0-1.6,1.2-2.7,2.6-2.7h1.2L112.9,20.1z"/>
	<path class="st0" d="M136.2,42.8c-1.8,1.9-4.1,3-6.7,3c-3.9,0-6.6-2.5-6.6-6c0-5.2,4.2-8.1,9.7-8.1c2.4,0,4.5,0.4,6.3,1l0.1-0.3
		c0.1-0.5,0.3-1,0.3-1.7c0-1.6-1.1-2.6-4.2-2.6c-1.3,0-2.8,0.2-3.9,0.5c-0.4,0.1-0.8,0.2-1,0.2c-1.4,0-2.5-1.1-2.5-2.6
		c0-1.3,0.8-2.1,1.9-2.5c2.1-0.7,4.4-1,6.9-1c6,0,9.1,2.5,9.1,6.9c0,1.2-0.2,2.3-0.5,3.4l-2.5,9.5c-0.5,2.1-1.9,3.2-3.6,3.2
		C136.4,45.7,136.1,44.1,136.2,42.8z M137.9,36.9l0.2-0.6c-1.1-0.4-2.6-0.8-4.2-0.8c-2.6,0-4.6,1.3-4.6,3.5c0,1.4,1.1,2.4,2.9,2.4
		C134.8,41.5,137.1,39.4,137.9,36.9z"/>
	<path class="st0" d="M155.4,42.4c-0.5,2.1-1.9,3.2-3.6,3.2c-2.1,0-3.3-1.6-2.6-4.2l3.6-13.1c-1.1-0.2-2.4-1.1-2.4-2.7
		c0-1.6,1.2-2.7,2.6-2.7h1.1l0.3-1.2c1.3-5,4.4-7.2,9.1-7.2c0.7,0,1.4,0,1.9,0.1c1.2,0.2,2.1,1,2.1,2.4c0,2-1.4,3.2-2.8,2.9
		c-0.3,0-0.7-0.1-1-0.1c-1.7,0-2.7,0.8-3.2,2.4l-0.2,0.6h2.3c1.5,0,2.6,1.2,2.6,2.7c0,1.6-1.2,2.7-2.6,2.7h-3.6L155.4,42.4z"/>
	<path class="st0" d="M165.9,35.5c0-6.7,5.8-13,13-13c6.7,0,10.8,4.4,10.8,10.4c0,6.7-5.8,13-13,13
		C170.1,45.9,165.9,41.5,165.9,35.5z M183.5,33.1c0-3.3-2-5.1-4.9-5.1c-3.9,0-6.5,4.2-6.5,7.4c0,3.3,2,5.1,4.9,5.1
		C180.9,40.5,183.5,36.3,183.5,33.1z"/>
	<path class="st0" d="M202.7,27c1.5-2.9,3.2-4.3,5.2-4.3c1.6,0,2.7,1,2.7,2.9c0,1.7-0.8,2.7-2.8,3.3c-4,1.1-6.5,3.7-7.9,8.7l-1.4,5
		c-0.5,2.1-1.9,3.2-3.6,3.2c-2.1,0-3.3-1.6-2.6-4.2l4.2-15.6c0.5-2.1,1.9-3.2,3.6-3.2c2.1,0,3.2,1.6,2.6,3.8L202.7,27z"/>
	<path class="st0" d="M226.3,33.1c0.2-0.6,0.3-1.5,0.3-2c0-1.8-1-2.8-3-2.8c-2.5,0-4.1,1.8-4.8,4.5l-2.6,9.7
		c-0.5,2.1-1.9,3.2-3.6,3.2c-2.1,0-3.3-1.6-2.6-4.2l4.2-15.6c0.5-2.1,1.9-3.2,3.7-3.2c1.8,0,2.9,1.2,2.9,2.6c1.6-1.4,3.4-2.8,6-2.8
		c3.1,0,5.1,1.6,6,4.1c2-2.4,4.7-4.1,8.1-4.1c4,0,6.5,2.5,6.5,6.6c0,1.3-0.4,2.9-0.8,4.3l-2.4,9.1c-0.5,2.1-1.9,3.2-3.6,3.2
		c-2.1,0-3.3-1.6-2.6-4.2l2.3-8.4c0.2-0.6,0.3-1.5,0.3-2c0-1.8-1-2.8-3-2.8c-2.5,0-4.1,1.8-4.8,4.5l-2.6,9.7
		c-0.5,2.1-1.9,3.2-3.6,3.2c-2.1,0-3.3-1.6-2.6-4.2L226.3,33.1z"/>
	<path class="st0" d="M262.5,42.8c-1.8,1.9-4.1,3-6.7,3c-3.9,0-6.6-2.5-6.6-6c0-5.2,4.2-8.1,9.7-8.1c2.4,0,4.5,0.4,6.3,1l0.1-0.3
		c0.1-0.5,0.3-1,0.3-1.7c0-1.6-1.1-2.6-4.2-2.6c-1.3,0-2.8,0.2-3.9,0.5c-0.4,0.1-0.8,0.2-1,0.2c-1.4,0-2.5-1.1-2.5-2.6
		c0-1.3,0.8-2.1,1.9-2.5c2.1-0.7,4.4-1,6.9-1c6,0,9.1,2.5,9.1,6.9c0,1.2-0.2,2.3-0.5,3.4l-2.5,9.5c-0.5,2.1-1.9,3.2-3.6,3.2
		C262.8,45.7,262.5,44.1,262.5,42.8z M264.2,36.9l0.2-0.6c-1.1-0.4-2.6-0.8-4.2-0.8c-2.6,0-4.6,1.3-4.6,3.5c0,1.4,1.1,2.4,2.9,2.4
		C261.2,41.5,263.5,39.4,264.2,36.9z"/>
	<path class="st0" d="M47.8,82.4c-0.5,2.1-1.9,3.2-3.6,3.2c-2.1,0-3.3-1.6-2.6-4.2l6-22.5c0.5-2.1,1.9-3.2,3.6-3.2
		c2.1,0,3.3,1.6,2.6,4.2L47.8,82.4z"/>
	<path class="st0" d="M65.4,65.3c1.6-1.4,3.6-2.8,6.1-2.8c4,0,6.6,2.5,6.6,6.6c0,1.3-0.4,2.9-0.8,4.3L75,82.4
		c-0.5,2.1-1.9,3.2-3.6,3.2c-2.1,0-3.3-1.6-2.6-4.2l2.3-8.4c0.2-0.6,0.3-1.5,0.3-2c0-1.8-1.1-2.8-3.1-2.8c-2.5,0-4.2,1.8-4.9,4.5
		l-2.6,9.7c-0.5,2.1-1.9,3.2-3.6,3.2c-2.1,0-3.3-1.6-2.6-4.2l4.2-15.6c0.5-2.1,1.9-3.2,3.7-3.2C64.4,62.7,65.4,63.8,65.4,65.3z"/>
	<path class="st0" d="M87.5,60.1c0.5-2.1,1.9-3.2,3.6-3.2c2.1,0,3.3,1.6,2.6,4.2l-0.5,1.8h2.1c1.5,0,2.6,1.2,2.6,2.7
		c0,1.6-1.2,2.7-2.6,2.7h-3.6l-2.5,9.5c-0.1,0.3-0.2,0.8-0.2,1c0,0.8,0.5,1.3,1.6,1.3h0.5c1.3,0,2.3,0.8,2.3,2.4
		c0,1.4-0.7,2.2-1.6,2.6c-1.2,0.5-2.4,0.6-3.7,0.6c-3.9,0-5.8-1.9-5.8-4.4c0-0.9,0.2-1.8,0.4-2.8l2.7-10.2c-1.1-0.2-2.4-1.1-2.4-2.7
		c0-1.6,1.2-2.7,2.6-2.7h1.2L87.5,60.1z"/>
	<path class="st0" d="M113.2,79.9c0.5-0.3,1.3-0.6,1.9-0.6c1.3,0,2.4,1,2.4,2.4c0,0.9-0.5,1.7-1.2,2.1c-2,1.3-4.5,2-7.3,2
		c-6.5,0-10.4-3.8-10.4-10c0-6.5,5.3-13.4,13.4-13.4c5.8,0,9.2,3.8,9.2,8.8c0,0.7-0.1,1.6-0.3,2.3c-0.4,1.8-1.4,2.8-3.1,2.8h-13.2
		c0.2,2.6,1.8,4.4,5.1,4.4C111.1,80.8,112.3,80.4,113.2,79.9z M114.9,72.4c0.1-0.4,0.2-0.9,0.2-1.5c0-1.8-1.1-3.3-3.7-3.3
		c-2.9,0-5.3,1.9-6.3,4.8H114.9z"/>
	<path class="st0" d="M133.4,67c1.5-2.9,3.2-4.3,5.2-4.3c1.6,0,2.7,1,2.7,2.9c0,1.7-0.8,2.7-2.8,3.3c-4,1.1-6.5,3.7-7.9,8.7l-1.4,5
		c-0.5,2.1-1.9,3.2-3.6,3.2c-2.1,0-3.3-1.6-2.6-4.2l4.2-15.6c0.5-2.1,1.9-3.2,3.6-3.2c2.1,0,3.2,1.6,2.6,3.8L133.4,67z"/>
	<path class="st0" d="M152,85.9c-6.1,0-10.5-4-10.5-10.2c0-7.4,6.1-13.3,13.3-13.3c4.2,0,6.3,1.6,7.6,2.8c0.6,0.6,1.2,1.4,1.2,2.5
		c0,1.6-1.3,3-3.1,3c-0.9,0-1.6-0.3-2.1-0.9c-1-1.2-2.3-1.9-4.1-1.9c-3.4,0-6.5,3.7-6.5,7.8c0,2.9,1.9,4.7,4.4,4.7
		c1.3,0,2.5-0.3,3.9-1.3c0.5-0.3,1.2-0.7,1.9-0.7c1.5,0,2.6,1.2,2.6,2.6c0,0.9-0.4,1.6-1,2.1C157.3,85.1,155,85.9,152,85.9z"/>
	<path class="st0" d="M164.4,75.5c0-6.7,5.8-13,13-13c6.7,0,10.8,4.4,10.8,10.4c0,6.7-5.8,13-13,13
		C168.5,85.9,164.4,81.5,164.4,75.5z M182,73.1c0-3.3-2-5.1-4.9-5.1c-3.9,0-6.5,4.2-6.5,7.4c0,3.3,2,5.1,4.9,5.1
		C179.4,80.5,182,76.3,182,73.1z"/>
	<path class="st0" d="M201.6,65.3c1.6-1.4,3.6-2.8,6.1-2.8c4,0,6.6,2.5,6.6,6.6c0,1.3-0.4,2.9-0.8,4.3l-2.4,9.1
		c-0.5,2.1-1.9,3.2-3.6,3.2c-2.1,0-3.3-1.6-2.6-4.2l2.3-8.4c0.2-0.6,0.3-1.5,0.3-2c0-1.8-1.1-2.8-3.1-2.8c-2.5,0-4.2,1.8-4.9,4.5
		l-2.6,9.7c-0.5,2.1-1.9,3.2-3.6,3.2c-2.1,0-3.3-1.6-2.6-4.2l4.2-15.6c0.5-2.1,1.9-3.2,3.7-3.2C200.6,62.7,201.6,63.8,201.6,65.3z"
		/>
	<path class="st0" d="M232.3,79.9c0.5-0.3,1.3-0.6,1.9-0.6c1.3,0,2.4,1,2.4,2.4c0,0.9-0.5,1.7-1.2,2.1c-2,1.3-4.5,2-7.3,2
		c-6.5,0-10.4-3.8-10.4-10c0-6.5,5.3-13.4,13.4-13.4c5.8,0,9.2,3.8,9.2,8.8c0,0.7-0.1,1.6-0.3,2.3c-0.4,1.8-1.4,2.8-3.1,2.8h-13.2
		c0.2,2.6,1.8,4.4,5.1,4.4C230.2,80.8,231.5,80.4,232.3,79.9z M234,72.4c0.1-0.4,0.2-0.9,0.2-1.5c0-1.8-1.1-3.3-3.7-3.3
		c-2.9,0-5.3,1.9-6.3,4.8H234z"/>
	<path class="st0" d="M253.7,69.7l5.5-5.5c1-1,1.7-1.6,3.1-1.6s2.6,1,2.6,2.5c0,1.2-0.7,2.2-1.5,2.9l-7,6.3l3.8,6.1
		c0.5,0.9,0.8,1.6,0.8,2.4c0,1.8-1.3,3.1-3.1,3.1c-1.6,0-2.4-0.8-3.2-2.4l-2.7-5l-5.9,5.8c-1.1,0.9-1.7,1.6-3.1,1.6
		c-1.4,0-2.5-1-2.5-2.5c0-1.1,0.4-1.9,1.4-2.9l7.4-6.6l-3.7-5.8c-0.5-0.8-0.8-1.5-0.8-2.4c0-1.7,1.2-3,3-3c1.7,0,2.5,0.8,3.3,2.4
		L253.7,69.7z"/>
	<path class="st0" d="M272.2,82.4c-0.5,2.1-1.9,3.2-3.6,3.2c-2.1,0-3.3-1.6-2.6-4.2l4.2-15.6c0.5-2.1,1.9-3.2,3.6-3.2
		c2.1,0,3.3,1.6,2.6,4.2L272.2,82.4z M275.1,60.6c-2,0-3.4-1.3-3.1-2.9l0-0.2c0.4-1.8,2.1-2.9,4.1-2.9c2,0,3.4,1.3,3.1,2.9l0,0.2
		C278.9,59.5,277.2,60.6,275.1,60.6z"/>
	<path class="st0" d="M279.3,75.5c0-6.7,5.8-13,13-13c6.7,0,10.8,4.4,10.8,10.4c0,6.7-5.8,13-13,13
		C283.5,85.9,279.3,81.5,279.3,75.5z M296.9,73.1c0-3.3-2-5.1-4.9-5.1c-3.9,0-6.5,4.2-6.5,7.4c0,3.3,2,5.1,4.9,5.1
		C294.4,80.5,296.9,76.3,296.9,73.1z M299,59.3c-1.3,1-2.4,1.4-3.7,1.4c-1.1,0-1.8-0.4-1.8-1.2c0-0.4,0.2-0.8,0.5-1.2l3.2-3.5
		c0.7-0.8,1.3-1.4,2.4-1.4c1.6,0,3.6,1,3.6,2.1c0,0.5-0.3,0.9-0.9,1.4L299,59.3z"/>
	<path class="st0" d="M316.6,65.3c1.6-1.4,3.6-2.8,6.1-2.8c4,0,6.6,2.5,6.6,6.6c0,1.3-0.4,2.9-0.8,4.3l-2.4,9.1
		c-0.5,2.1-1.9,3.2-3.6,3.2c-2.1,0-3.3-1.6-2.6-4.2l2.3-8.4c0.2-0.6,0.3-1.5,0.3-2c0-1.8-1.1-2.8-3.1-2.8c-2.5,0-4.2,1.8-4.9,4.5
		l-2.6,9.7c-0.5,2.1-1.9,3.2-3.6,3.2c-2.1,0-3.3-1.6-2.6-4.2l4.2-15.6c0.5-2.1,1.9-3.2,3.7-3.2C315.6,62.7,316.6,63.8,316.6,65.3z"
		/>
</g>
<path class="st0" d="M9.3,99.4c-1.7,0-3-1.3-3-3V13.6c0-1.7,1.3-3,3-3s3,1.3,3,3v82.8C12.3,98,10.9,99.4,9.3,99.4z"/>
</svg>
