<?xml version="1.0" encoding="utf-8"?>
<!-- Generator: Adobe Illustrator 22.1.0, SVG Export Plug-In . SVG Version: 6.00 Build 0)  -->
<svg version="1.1" id="Capa_1" xmlns="http://www.w3.org/2000/svg" xmlns:xlink="http://www.w3.org/1999/xlink" x="0px" y="0px"
	 viewBox="0 0 200.2 110.2" style="enable-background:new 0 0 200.2 110.2;" xml:space="preserve">
<style type="text/css">
	.st0{fill:#81D7EA;}
	.st1{fill:#EF7370;}
	.st2{fill:#796167;}
	.st3{fill:#FFDC6C;}
	.st4{fill:#81B963;}
</style>
<path class="st0" d="M59.2,2.2L59.2,2.2c6.1,0,11.1,5,11.1,11.1c0,6.1-5,11.1-11.1,11.1h-4.6l30.3,30.3L54.6,85h4.6
	c6.1,0,11.1,5,11.1,11.1c0,4.8-3.1,9.1-7.7,10.6c1.7-0.5,3.2-1.5,4.4-2.7l33.5-33.5l33,33c-4-4.6-3.6-11.6,1-15.7
	c2-1.8,4.6-2.8,7.4-2.8h4.6l-30.3-30.3l30.3-30.3H142c-6.1,0-11.1-5-11.1-11.1c0-2.7,1-5.3,2.8-7.3l-33,33L67.1,5.4
	C65,3.4,62.2,2.2,59.2,2.2"/>
<path class="st1" d="M59.2,2.2h-45c-6.1,0-11.1,5-11.1,11.1c0,0,0,0,0,0v82.8l0.2,2.2l0.7,2.1c0.1,0.3,0.3,0.7,0.5,1
	c0.1,0.2,0.2,0.3,0.3,0.5c0.2,0.3,0.4,0.6,0.6,0.9l0,0c0.2,0.3,0.4,0.6,0.7,0.8l0.4,0.4c2.1,2.1,4.9,3.3,7.9,3.3h45
	c1.2,0,2.3-0.2,3.5-0.5c-1.1,0.4-2.3,0.6-3.4,0.5c-6.1,0-11.1-5-11.1-11.1c0-3,1.2-5.8,3.3-7.9l3.2-3.2H25.3V65.8h26.2
	c6.1,0,11.1-5,11.1-11.1c0-6.1-5-11.1-11.1-11.1c0,0,0,0,0,0H25.3V24.4h29.3l-3.3-3.3C47,16.8,47,9.8,51.3,5.5
	C53.4,3.4,56.3,2.2,59.2,2.2L59.2,2.2"/>
<path class="st2" d="M59.2,85h-4.6l-3.2,3.2c-4.3,4.3-4.3,11.4,0,15.7c2.1,2.1,4.9,3.3,7.9,3.3c1.2,0,2.3-0.2,3.4-0.5
	c5.8-1.9,9-8.2,7.1-14C68.3,88.1,64,85,59.2,85 M59.2,2.2c-6.1,0-11.1,5-11.1,11.1c0,3,1.2,5.8,3.3,7.9l3.3,3.3h4.6
	c6.1,0,11.1-5,11.1-11.1C70.3,7.2,65.4,2.2,59.2,2.2C59.2,2.2,59.2,2.2,59.2,2.2"/>
<path class="st3" d="M133.7,103.5c2.1,2.4,5.1,3.8,8.3,3.8l0,0c-3,0-5.8-1.2-7.9-3.3L133.7,103.5 M187,2.2h-45
	c-2.9,0-5.8,1.2-7.9,3.2c-0.2,0.2-0.3,0.3-0.5,0.5l0.5-0.5c4.3-4.3,11.4-4.3,15.7,0c4.3,4.3,4.3,11.4,0,15.7l-3.3,3.3h29.2v19.2
	h-26.2c-6.1,0-11.1,5-11.1,11.1c0,6.1,5,11.1,11.1,11.1c0,0,0,0,0,0h26.2V85h-29.2l3.2,3.2c4.3,4.3,4.3,11.4,0,15.7
	c-2.1,2.1-4.9,3.3-7.9,3.3h45c2.9,0,5.8-1.2,7.9-3.3l0.4-0.4c0.2-0.3,0.5-0.5,0.7-0.8l0,0c0.2-0.3,0.4-0.6,0.6-0.9
	c0.1-0.2,0.2-0.3,0.3-0.5c0.2-0.3,0.3-0.7,0.5-1l0.6-2.1l0.2-2.2V13.3C198.1,7.2,193.1,2.2,187,2.2C187,2.2,187,2.2,187,2.2"/>
<path class="st4" d="M146.6,85H142c-6.1,0-11.1,5-11.1,11.1c0,2.7,1,5.3,2.8,7.4l0.5,0.5c2.1,2.1,4.9,3.3,7.9,3.3l0,0
	c6.1,0,11.1-5,11.1-11.1c0-2.9-1.2-5.8-3.3-7.9L146.6,85 M142,2.2c-3,0-5.8,1.2-7.9,3.2L133.6,6c-4.1,4.6-3.6,11.6,1,15.7
	c2,1.8,4.7,2.8,7.4,2.8h4.6l3.3-3.3c4.4-4.3,4.4-11.4,0-15.7C147.8,3.4,145,2.2,142,2.2"/>
</svg>
